/* XPM */
static char *d0f9a7fba494475a9f0d174689b774a4nBXeBVxnbrnyq6iR[] = {
/* columns rows colors chars-per-pixel */
"60 60 141 2 ",
"   c #143757",
".  c #15375A",
"X  c #17395C",
"o  c #1B3E5E",
"O  c #1C3D62",
"+  c #223E66",
"@  c #1C415E",
"#  c #1E4163",
"$  c #1F4069",
"%  c #214466",
"&  c #234966",
"*  c #234669",
"=  c #2A476F",
"-  c #254A6B",
";  c #2A4D6D",
":  c #27506C",
">  c #2C516E",
",  c #30536F",
"<  c #264971",
"1  c #2B4D72",
"2  c #2E5272",
"3  c #2E557A",
"4  c #315476",
"5  c #345976",
"6  c #33567A",
"7  c #39577B",
"8  c #355A7C",
"9  c #3A5C7D",
"0  c #3C617E",
"q  c #40637F",
"w  c #365C81",
"e  c #3B5D82",
"r  c #376080",
"t  c #3E6284",
"y  c #3F6885",
"u  c #3F6489",
"i  c #3F6888",
"p  c #445E81",
"a  c #416586",
"s  c #426987",
"d  c #436689",
"f  c #48668C",
"g  c #456A8C",
"h  c #496C8E",
"j  c #46728D",
"k  c #4B718E",
"l  c #466C90",
"z  c #496D91",
"x  c #4C7292",
"c  c #4F7992",
"v  c #4E7699",
"b  c #4F7898",
"n  c #527695",
"m  c #537996",
"M  c #507699",
"N  c #557C9B",
"B  c #597D9D",
"V  c #577EA1",
"C  c #5A7EA1",
"Z  c #56829E",
"A  c #5B809D",
"S  c #5A839F",
"D  c #5B829F",
"F  c #5C819E",
"G  c #5E839E",
"H  c #5A819E",
"J  c #5681A1",
"K  c #5582A1",
"L  c #5783A0",
"P  c #5682A0",
"I  c #5980A1",
"U  c #5F82A0",
"Y  c #5C80A2",
"T  c #5F83A3",
"R  c #5E82A4",
"E  c #5E85A4",
"W  c #5C83A2",
"Q  c #5D89A4",
"!  c #5E84A8",
"~  c #5F88A8",
"^  c #6184A0",
"/  c #6285A1",
"(  c #6186A3",
")  c #6287A2",
"_  c #6487A3",
"`  c #6386A6",
"'  c #6185A4",
"]  c #6189A3",
"[  c #6388A3",
"{  c #6289A6",
"}  c #6588A4",
"|  c #648CA5",
" . c #648AA5",
".. c #6A8CA7",
"X. c #6087A8",
"o. c #6386A9",
"O. c #638AA9",
"+. c #638AAB",
"@. c #658AAA",
"#. c #698CA8",
"$. c #688DAA",
"%. c #698DAC",
"&. c #6793AE",
"*. c #6D92AF",
"=. c #6C92AD",
"-. c #7193AE",
";. c #6B94B0",
":. c #6F94B1",
">. c #6C92B1",
",. c #7295B4",
"<. c #7599B3",
"1. c #759AB5",
"2. c #769AB4",
"3. c #759DB6",
"4. c #7599B5",
"5. c #789BB7",
"6. c #759CB9",
"7. c #759EBA",
"8. c #769DBA",
"9. c #7C9FBB",
"0. c #7A9EBC",
"q. c #79A1BB",
"w. c #79A0BD",
"e. c #7EA1BD",
"r. c #7CA1BD",
"t. c #7FA6C3",
"y. c #7DA3C1",
"u. c #80A3BF",
"i. c #80A4BF",
"p. c #81A6C3",
"a. c #84A7C3",
"s. c #82A5C3",
"d. c #81A9C3",
"f. c #87ABC5",
"g. c #84A9C5",
"h. c #89ADC7",
"j. c #88AAC5",
"k. c #85AAC9",
"l. c #88ABC9",
"z. c #89ADCB",
"x. c #8CB1CA",
/* pixels */
"+ 7 9 p e e w 8 w 1 O 7 w a a 7 w 8 e = + e 7 p a 7 w 8 w % % 5 7 a p w 8 w 7 % % q 7 p a 8 8 e w O - 9 9 p e w w w 7 + ",
"0 9.u.../ G H N Q 8 p a.9._ _ / N S m 3 s d.9.| ` E N K C 4 n l.3./ O.K Z I N 4 m z.2. .{ B N N B ; / g.2._ ` B K K N 1 ",
"N t.N d t d d g i 8 { p.n s s a s d k 8 >.6.n i s a d i g 9 ,.<.n a d g y t z w 0.;.h g a d g g d r y.%.x d d y s t h 4 ",
"x O.r h h l g g x 8 x [ d d l l l h z 7 m R d u h g s h h 4 G N d l f l f l l 6 ~ m s g d l l f l 2 +.x y g d l g h z 4 ",
"s U g g g g h g h 5 h B h l f f l z h : c n d x d z g j s 4 m x i g g h g j s - B x h h g g z z y 4 H x d h g g h g y 1 ",
"= 9 d d h t d 9 ; % % a d e l f y w 1 % ; d u t l d t 7 1 # < g u d g t y 8 ; + 2 s t u g g t 5 ; . 3 t t f a d a 6 * O ",
"8 6 e < O ; 7 9 e w 6 8 8 w O 1 e 9 e 8 6 6 w 6 O 1 9 9 9 t 3 8 7 6 + 1 e e e e 3 w w 3 O 2 e 9 9 9 6 8 e 1 O e 9 9 9 5 ",
"Z Z E 8 % =.j.<.$.{ I V B v ; 4.j.-._ #.Z K Q j ; 9.a.=...T J K E s , u.f.=. .' Z L W t 6 a.a...[ { N R C e 9 j.q.*.| E ",
"s d d t 1 k.{ j d t d d d s s p.E h t g d d h t h k.Z g u d d d s e x k.N g d d a g g 9 N t.N i d d d d g e E r.b g t i ",
"h h g t 1 %.h y g g v f g g 7 >.y z h d g g g a e >.i g h g l g h i s +.y g g l z g z t g O.d g h g g d b 8 k +.s g h g ",
"l g g 4 - C M l l l d g x w 3 E h d g l h h h 9 7 E s h l l f g j 6 8 ! g g l g d z s 2 y ' d l l f z h h 4 l J d f g l ",
"g 9 4 % o 7 e u u f d d 5 - # 9 u t d d d a 4 & # 8 d u p l d y , - # w i u y u g t 6 * * e u u u h s 0 2 # - e d u d f ",
"$ 5 5 5 9 0 8 8 8 - o 5 6 0 9 7 w 7 e - % 7 5 9 e 8 8 6 e * O w 8 0 0 8 w w w * % 5 7 q 7 8 8 8 6 % - 7 5 q e w 8 w 6 $ ",
"9 t.p.$. .E Z V C e t l.s.#.` / V J R 8 s k.y.$.+.' K H C 3 m z.0.O.O.! C J C - B z.9. .o.G B E V 1 ` z.0.#.o.C J I M 1 ",
"B p.N d s d a d h t o.0.x g a d u d g 8 %.y.x d d t i g l 7 ,.4.x d i u d u z t 8.,.z a s g g d f r y.%.h a s s s g g 6 ",
"k | t g h h h f z 8 v ' d s g g g g x 6 B B a g f h g g h 6 B B g g g g g g l 5 E n s g h d d g s 6 O.v d g s h g h h 4 ",
"g K g h g h h z h 2 l V g l g h z g h 2 x B d l g l g h h - N m g g z l l h g ; Z x g l h h h h t ; C v l g d h h h d = ",
"- w u d f d s 9 > % & t u a d d y 8 4 O 1 y t d l a t 7 2 @ 1 u t t f s a 8 ; @ > d u f d d p 6 > # 1 u u d f a t 4 ; O ",
"6 8 9 = O ; 7 0 0 9 6 w e 4 $ ; e 9 9 5 4 7 e 6 o 1 p 5 5 t 6 w 7 6 @ 2 7 a 9 7 6 8 9 1 $ 6 9 0 9 5 7 e 6 1 # 6 t 7 e 7 ",
"I I R t O >.h.<. .O.R N ' z 1 ,.g.:.O.%.J T B h , 0.a.,.o.' C C ' z > t.g.O.%.o.R m o.a 5 s.a.$.#.O.B C +.7 e k.y.=.+.o.",
"h i i r 2 s.{ g d t d h g d d g.E h a d a s g d g a.T s s y g i g y x t.N z t u g g s 0 Z t.M d t y u d s t Z t.n s d 0 ",
"s g x t - >.v a g h h d g s 9 =.s d h g g g g d 0 *.i d h g u g g 0 i &.t s g l u g k 8 g #.y g h g x g h 0 c E d d h h ",
"h z s 3 1 C z g v d h h h t 4 E h g h g h h g 9 8 K g z l z h h k 5 e C j x f s l h h 3 y ! d g g g d h h ; j C g g g g ",
"h 5 4 * X 8 t d e d g y 4 & # 8 d d d d g t 5 * O t t d u u d t 5 # $ e t t u g d t 2 % & r d d d g d r 2 * * e a d d d ",
"% 4 8 7 t 8 w 8 e - $ 7 5 9 e 6 8 6 7 - + 9 7 9 w 8 8 8 w * % 6 6 9 7 5 8 8 8 % % 7 7 e e 6 w 8 6 O - e 7 9 e 7 6 w 5 O ",
"0 a.t.=./ / H N Q 9 0 g.u...' ' Z E G 6 h f.u.|  .E N I R 2 n z.9.-.%.T I E C 2 G x.8.{  .G H B B ;  .g.9./  .T I I N 1 ",
"B y.N s d a d g s r / s.m s y y d y g 9 $.8.x u d d s y g e ,.<.k q d d d y h 7 3.*.h i d s d s h 0 w.#.k d y d s y d 4 ",
"h #.t i g l l s z 7 x ` d d f l l f x 6 N T l g l f l l z 4 I B a g s l g g g 5 Q N s f g z g g h 3 O.b d g d z g h z 4 ",
"s T d h g h g h k , h N g z h f g z s > k m d z d g g k g 2 n m s l z l h z s 1 N x g g g g h h q > T z g g h h h f a ; ",
"% 9 d u f a a 9 1 # - d t d f a t w 4 @ 1 u d e g s d 5 ; % - i u d g d d 5 ; % 4 d d d f d a 6 >   6 u t d d a s 7 - + ",
"w 6 t < % = 7 t t 8 8 w 8 w o 1 e 9 9 w 8 8 w 6 + 1 0 0 e t 3 r 8 2 O 4 9 0 8 9 3 6 w 4 X 6 t 9 e e 6 w e 1 o 7 9 0 t 8 ",
"Z I W 9 @ -.j.-.{ | H I I x ; 2.j.-. .O.B L W j ; 9.i.=. ./ I Z ' d 4 u.p.=.#.' K I T a 5 a.a...[ [ Z K ! 5 a j.r.$. .E ",
"d d g t 1 k.Q j d u f f d d g s./ s y g u d g a h a.S s d d a f s e x k.N g d d d d g 0 m d.m s t s d f d e W r.b g y y ",
"h s h 9 1 >.g i l d z d g d 6 *.s h l f f l g t 9 &.s s g d h f g d i %.s g s l l d z r g O.g g g g f g n 8 h { i g g g ",
"l g h 2 - ' x g l l d z x 0 6 Q h d d z l g x 8 8 O.g z x h z h k 5 8 W d g z z h z h 4 d R f l h g h g g 4 g I d h h z ",
"s e 6 * O 7 e d u g s d 3 % @ 8 d t d d d t 3 & O r i t e d g t 2 - % r a a d a f e 6 % * t t u d g a 0 4 # & e a a d d ",
"# 6 7 9 9 9 8 8 e = % 5 5 t 9 7 w w 8 ; % 7 9 9 e 8 e 8 t % * 8 9 9 9 5 8 e w * % 7 9 9 8 9 8 8 8 $ - 9 9 e 9 e 6 8 6 O ",
"q a.a.$.{ E B Z ' w e z.s.#.' ' V J J 7 g g.s.#.+.' J V C 2 n z.r. .o.' C R C 1 G z.9. .O.I N Q C ; / z.2.O.o.B W I N 1 ",
"B y.N t d g d s f t ' r.h g d d s u h 7 O.9.x a s e d s g 7 ,.4.h s f s d d g 9 1.>.g a a h s y g 9 r.$.k a f s y g d 6 ",
"j #.t g g s z d z 6 x { s g h g h s x 4 B I t l h h g s z 5 H H s g g g g g g 5 Q N y z f l d l g 6 %.k d g g g g h g 6 ",
"g I s l g z g x h 2 g C h g l l h h h ; x B d l f g h g g ; b N l d l h h h s : B x f l l g l l q > H v z g l l h g a = ",
"; r u u d d d 7 2 # * y t u f d d 7 2 @ 2 r t d g d t 9 2 O 2 r u d f d a 5 ; # 2 y d d u d a 6 - % 2 r t f d t a 5 > # ",
"8 8 7 = $ ; 8 e 0 9 6 8 9 6 O 1 7 9 9 9 6 8 r 3 O 4 0 9 8 0 6 8 e 4 o , 9 q 9 7 8 8 w 1 O 7 7 e t 6 8 e e 1 O 5 0 5 r 5 ",
"I V ' t o ,.h.4.O.O.E B E z 1 4.z.4.O.O.V I J v 4 6.g.,.O.{ C C C l 1 s.j...$.o.K N O.y 5 a.g.=.%.o.K V o.5 t k.r.=.#.' ",
"h i i t > s.' h d d d g g d a g.E s t s d d d a g s.E g s y u g f y n k.N g 0 d g g g 0 B t.n y d a s s d a T t.n s a q ",
"s g x r - >.x s d h g g h d 9 =.g d g g g d h g 9 :.u s h d g s l r y #.t g h h s g z 8 h +.i j h g l g k 7 h O.s s h g ",
"h z d 2 1 C h g k g g z h y 5 I h h h g h x g 5 7 C g z l h h h x 8 r C l h h f h h z 4 a / s h d h g h h 2 x C g f g g ",
"h 9 2 * . 5 a a t t h t 3 & # 8 a a e d d t 6 & $ w a u t d d t 2 % % e u p a s d e 2 % % w d a a d d t 2 % * r a a d s ",
"% 4 7 9 p 7 e 8 w 1 % 6 7 a 7 e w 8 e < % e 9 9 w 7 w w e * % 7 9 e e 7 9 8 e * % e 9 9 e w 8 0 w $ = e 7 9 a 6 8 8 8 $ ",
"q s.u.%./ / I B W 0 0 j.i.../ / Z W B 5 d l.9..._ T N E R 2 n z.q.|  .G Z W N > N x.1. .[ U H B B -  .g.q./  .G H E N 1 ",
"N p.N s y y i g s 8 E s.x s s d d d g 9 ;.w.n d a a d y g 9 ,.6.x p d d a d h 8 7.&.x s d g d d s 0 w.#.h d d y d t s 4 ",
"z o.a d l l i g x 6 x  .s d z f g g z 5 N I d u l l g z z 4 C B d l f l g l l 6 ! N u g g f l d h 3 +.b d l f l g h h 4 ",
"d / s g d h h g h > k m g z f h h h g > n n g z a h g z s > N x s g g h g g s & B x h g g h h z a 2 I z h g h h h g d 1 ",
"- w a d g a a 9 1 % - t t e f f y 8 > * * d d p h d t 4 > # - y s a d e a 5 - % 1 g e d h d t 5 ; . 6 t t d l p d 4 - o ",
"8 3 t < $ 1 7 e e e 8 w w 8 X 1 e e e w 8 8 w 6 + ; 9 e e a 3 w 8 6 + 4 a 9 9 0 6 6 w 4 O 4 9 e t e 8 w e 1 O 6 9 9 t 5 ",
"Z H I 0 # -.j.<. .{ H H I x ; 6.j.-.{ O.K Z W h ; u.f.=...U G V W s 4 y.a.=.| [ Z I G a 6 a.p.$.| G Z K ! 7 e k.u.%.O./ ",
"d d d t > g.E k t d s g g a y t.W l t s s d d d s k.B h u d d d d t x a.N g u d g d d 9 Z t.b i t d g a g 9 E y.x g t d ",
"h g z e - ,.k t z h g g h g 9 *.k s g h g g h d q %.g s g l l g z t s &.h u g s g g x 9 h %.s g h h h g x 8 k { s g z g ",
"h g g 3 - C h h g s g g g t 4 B i s l h g h s 8 8 V g g g g g s g 8 8 Z g h h h z d g 5 r I s h g g g g g 4 d B d g h g ",
"s s 6 & $ t h g g g l f 9 2 # d z g g g g s 0 - * d g g g g l h 8 = - g d g g s h s 5 - ; g g g g g g d 5 % > g h g d g "
};
