/* XPM */
static char *b4b434b298974a6c94917db3d2d3b6124UKAtu7w1QBIqdpG[] = {
/* columns rows colors chars-per-pixel */
"60 60 144 2 ",
"   c None",
".  c #000001",
"X  c #090706",
"o  c #0C0906",
"O  c #050708",
"+  c #080708",
"@  c #060909",
"#  c #0C0C0C",
"$  c #110B06",
"%  c #140D0D",
"&  c #190F0F",
"*  c #1B1107",
"=  c #19100F",
"-  c #0D0F10",
";  c #1C1212",
":  c #1F1918",
">  c #221407",
",  c #231508",
"<  c #291909",
"1  c #321D09",
"2  c #251615",
"3  c #261817",
"4  c #291917",
"5  c #251A19",
"6  c #2D1B1A",
"7  c #321E1C",
"8  c #37200A",
"9  c #3C230A",
"0  c #2F201F",
"q  c #35201E",
"w  c #39211F",
"e  c #352423",
"r  c #3C2422",
"t  c #3C2928",
"y  c #43270C",
"u  c #46290C",
"i  c #4E2D0D",
"p  c #522F0E",
"a  c #54320F",
"s  c #4D2E15",
"d  c #5C3611",
"f  c #5E3811",
"g  c #663B11",
"h  c #6B3D11",
"j  c #412623",
"k  c #452825",
"l  c #482927",
"z  c #442D2B",
"x  c #4C2C29",
"c  c #512F2B",
"v  c #46302E",
"b  c #4B312F",
"n  c #55312D",
"m  c #58332F",
"M  c #4B3331",
"N  c #533633",
"B  c #5D3632",
"V  c #5D3936",
"C  c #5C3D3A",
"Z  c #603733",
"A  c #633935",
"S  c #663D3A",
"D  c #693F3B",
"F  c #7C440E",
"G  c #6E4113",
"H  c #734314",
"J  c #7B4612",
"K  c #7F4A15",
"L  c #7D4915",
"P  c #7F4A15",
"I  c #66403D",
"U  c #67413E",
"Y  c #65413E",
"T  c #69403C",
"R  c #6A423E",
"E  c #6C433F",
"W  c #6A423E",
"Q  c #664441",
"!  c #6B4542",
"~  c #6C4541",
"^  c #6E4744",
"/  c #6C4542",
"(  c #6D4845",
")  c #704945",
"_  c #714945",
"`  c #754D4A",
"'  c #804711",
"]  c #824C13",
"[  c #804B14",
"{  c #804B15",
"}  c #804B16",
"|  c #824C14",
" . c #804C16",
".. c #804C17",
"X. c #824E17",
"o. c #854D16",
"O. c #874E16",
"+. c #844D16",
"@. c #8A4F14",
"#. c #814D19",
"$. c #8D5115",
"%. c #8D5116",
"&. c #8E5216",
"*. c #8F5216",
"=. c #8D5116",
"-. c #915214",
";. c #935417",
":. c #935517",
">. c #945516",
",. c #955516",
"<. c #945517",
"1. c #945517",
"2. c #995716",
"3. c #9A5716",
"4. c #9A5817",
"5. c #9B5917",
"6. c #9D5916",
"7. c #A35D17",
"8. c #A55E17",
"9. c #A55E17",
"0. c #A65F18",
"q. c #A75F18",
"w. c #A65F18",
"e. c #A85F18",
"r. c #AB6117",
"t. c #AA6018",
"y. c #AB6118",
"u. c #AF6318",
"i. c #AA6118",
"p. c #B36518",
"a. c #B46518",
"s. c #B46618",
"d. c #B56718",
"f. c #B36518",
"g. c #B86718",
"h. c #B96918",
"j. c #B96819",
"k. c #BA6918",
"l. c #BA6919",
"z. c #BB6919",
"x. c #BB6A19",
"c. c #BC6A19",
"v. c #BE6B19",
"b. c #BA6919",
/* pixels */
"                                  5 @ . # # # $ $ # + . %                                                               ",
"                              A S B r # l m c n m m w $ x 7 - ;                                                         ",
"                        # X 6 B ^ I j # m A A A ^ D j # N B c l % +                                                     ",
"                    # : x V b 4 Q Y y # c U U V ^ S w # c B l 2 l n k % @                                               ",
"                % O 5 C A S B l 2 & # O % ; ; % ; ; # O % & 6 x B / S k $ @                                             ",
"              % l x r 6 m Z l % O . . . . . . . . . . . . . X 2 m A x 2 l N z X                 F ' ' J [ F             ",
"            4 x / S m k 2 ; % . . . . . . . . . . . . . . . . . ; ; 6 l B S B k ;       ; f K K [ 6.u.e.r.=.X.X.        ",
"        # w w 6 B r ; ; . . . . . . . . . . . . . . . . . . . . . . X 2 ; l x 5 M 6 . * f H &.t.o.8.l.l.l.,.L X.L F     ",
"      5 N V B r 2 X . . . . . . . . . . . . . . . . . . . . . . . . . . . % & O 5 s d d P 2.u.a.o.8.v.g.h.,.=.t.t.*.K #.",
"    2 r 0 4 2 2 . . . . . . . . . . . . . . . . . . . . . . . . . . . . . . . o i =.e.0.[ 0.v.f.O.8.l.l.h.;.,.l.d.,.K K ",
"  - 2 B j r 5 . . . . . . . . . . . . . . . . . . . . . . . . . . . . . . . . o H e.v.a.O.0.l.a.o.8.l.g.h.;.;.h.x.,.K K ",
"  - 2 A / D j O . . . . . . . . . . . . . . . . . . . . . . . . . . . . . . . $ H e.g.a.o.0.l.f.O.0.l.l.h.;.;.h.d.;.K #.",
"  - % 7 S S r . . . . . . . . . . . . . . . . . . . . . . . . . . . . . . . . $ H 0.l.f.O.8.v.f.O.8.l.g.l.;.;.h.x.>.K K ",
"  - % q 7 6 : . . . . . . . . . . . . . . . . . . . . . . . . . . . . . . . . # H 0.l.f.O.8.g.a.O.8.v.g.l.;.;.l.h.>.K K ",
"  - 2 B w 7 2 . . . . . . . . . . . . . . . . . . . . . . . . . . . . . . . . $ H 0.v.p.o.8.l.f.O.8.v.l.l.;.,.l.h.>.K X.",
"  # 2 A E D j . . . . . . . . . . . . . . . . . . . . . . . . . . . . . . . . $ H 0.g.p.o.0.v.f.O.8.g.g.l.;.;.l.h.>.K K ",
"  - % 7 t t 2 . . . . . . . . . . . . . . . . . . . . . . . . . . . . . . . . % H t.l.f.O.8.v.a.o.8.l.l.h.;.;.h.l.,.L ..",
"  - & e 6 6 ; O . . . . . . . . . . . . . . . . . . . . . . . . . . . . . . . @ u ,.c.f.o.8.g.a.O.8.l.l.h.;.;.h.l.;.[ ..",
"  # 4 ^ ! S k . . . . . . . . . . . . . . . . . . . . . . . . . . . . . . . . O . i -.h.o.0.l.f.O.8.l.l.h.,.;.h.l.;.[ [ ",
"  - 2 A / D r . . . . . . . . . . . . . . . . . . . . . . . . . . . . . . . . . . . < J L 0.v.f.O.8.l.l.l.;.;.h.h.,.L [ ",
"  # 2 B k r 6 O . . . . . . . . . . . . . . . . . . . . . . . . . . . . . . . . O < 9 u L t.l.f.O.8.v.l.h.,.;.h.h.,.L [ ",
"  - ; k 6 2 % . . . . . . . . . . . . . . . . . . . . . . . . . . . . . . . . O < $.l.u.X.7.l.f.O.8.l.g.h.;.;.l.h.;.L [ ",
"  - @ 6 U ~ z . . . . . . . . . . . . . . . . . . . . . . . . . . . . . . . . $ G t.d.f.o.0.l.f.o.8.l.l.h.;.;.h.l.<.[ [ ",
"  # 2 Z A / z . . . . . . . . . . . . . . . . . . . . . . . . . . . . . . . . o G t.x.d.$.7.l.f.O.0.l.g.h.;.;.l.l.<.[ ..",
"  # ; x x B j . . . . . . . . . . . . . . . . . . . . . . . . . . . . . . . . % H 0.g.p.o.8.g.p.O.8.g.g.l.;.<.l.l.;.L [ ",
"  - @ ; 2 r e . . . . . . . . . . . . . . . . . . . . . . . . . . . . . . . . $ H 0.v.p.O.8.v.p.O.8.v.l.l.<.;.l.l.,.L X.",
"  - 2 B Q t $ . . . . . . . . . . . . . . . . . . . . . . . . . . . . . . . . o H 0.v.p.O.8.v.p.O.8.v.g.h.;.;.l.l.;.[ ..",
"  # 2 A A A r . . . . . . . . . . . . . . . . . . . . . . . . . . . . . . . . $ H 0.l.a.O.8.g.p.O.8.l.g.h.;.;.h.l.<.[ [ ",
"  # 2 n c B j . . . . . . . . . . . . . . . . . . . . . . . . . . . . . . . . $ H 0.g.f.O.8.v.f.O.8.l.l.h.;.;.l.l.;.L [ ",
"  - + & ; k r . . . . . . . . . . . . . . . . . . . . . . . . . . . . . . . . # H 0.l.f.O.8.l.f.O.8.l.l.l.,.,.h.l.,.L [ ",
"  - 2 c n 7 - . . . . . . . . . . . . . . . . . . . . . . . . . . . . . . . . $ H 0.l.f.o.8.l.f.O.8.l.g.r.o.=.l.l.,.[ ..",
"  # 3 Z Z B e . . . . . . . . . . . . . . . . . . . . . . . . . . . . . . . . $ H 0.l.f.o.8.v.a.O.8.v.r.y * i r.g.;.P ..",
"  # 2 B B B w . . . . . . . . . . . . . . . . . . . . . . . . . . . . . . . . o H t.l.f.O.7.l.f.O.8.c.g.7.1 $ u u.,.[ [ ",
"  - @ & & ; $ . . . . . . . . . . . . . . . . . . . . . . . . . . . . . . . . $ G t.l.f.O.t.l.f.O.8.c.g.a.9 1 7.g.,.' [ ",
"  - ; x x c e . . . . . . . . . . . . . . . . . . . . . . . . . . . . . . . . $ H t.d.f.o.0.l.f.O.8.h.8.u $ p a.l.<.[ [ ",
"  # 2 A Z A r O . . . . . . . . . . . . . . . . . . . . . . . . . . . . . . . o H t.l.f.o.0.l.f.O.e.@.u @.H a u e.<.L [ ",
"  # 5 ( A B r . . . . . . . . . . . . . . . . . . . . . . . . . . . . . . . . % H 0.l.f.O.0.l.f.O.r.J , 8.,.a > e.,.[ [ ",
"  # 0 ( 6 2 % O . . . . . . . . . . . . . . . . . . . . . . . . . . . . . . . o H 0.v.f.O.0.l.f.O.8.r.] i 1 a -.a.,.L [ ",
"  # # 6 j l 6 . . . . . . . . . . . . . . . . . . . . . . . . . . . . . . . . @ , O.v.a.O.8.l.a.O.8.l.h.@.g L c.v.,.L [ ",
"  - ; j B A j . . . . . . . . . . . . . . . . . . . . . . . . . . . . . . . . . . < h f.O.8.l.f.o.8.l.l.h.,.,.h.l.;.L X.",
"  - 2 Z A ! v . . . . . . . . . . . . . . . . . . . . . . . . . . . . . . . . O . . * a J 8.l.f.O.8.v.g.l.,.;.h.l.<.L [ ",
"  - % 2 4 C M O . . . . . . . . . . . . . . . . . . . . . . . . . . . . . . . . O p H H L 7.l.f.O.8.l.g.l.;.;.h.l.<.[ [ ",
"  # & r r r 5 . . . . . . . . . . . . . . . . . . . . . . . . . . . . . . . . @ u 2.v.d.O.8.l.a.O.8.l.l.l.;.;.h.l.;.[ [ ",
"  - 2 A B l 2 . . . . . . . . . . . . . . . . . . . . . . . . . . . . . . . . $ H t.l.f.O.8.l.f.o.8.l.g.l.;.;.h.l.,.L [ ",
"  - 2 A ! D j . . . . . . . . . . . . . . . . . . . . . . . . . . . . . . . . $ H 0.l.f.O.8.v.f.o.t.l.l.h.;.;.h.h.;.L X.",
"  # % q t r 2 . . . . . . . . . . . . . . . . . . . . . . . . . . . . . . . . $ H 0.l.f.O.8.l.f.o.8.l.l.h.;.;.h.h.;.L [ ",
"  - # 6 6 6 : . . . . . . ; 6 7 6 6 6 7 e e t e e q ; . . 2 7 7 6 e e 4 O . . $ H 0.v.f.O.8.l.f.$.7.l.l.h.;.;.l.l.,.[ [ ",
"  # 4 A A A r O . . . O 4 n A A A T / _ ` _ / ( ` _ N 6 6 7 w r B _ ^ B $ ; ; o H 0.l.a.O.8.l.f.o.8.l.l.h.;.;.l.l.,.L [ ",
"  # & r B A j + 2 3 3 6 w j r r r z b b v j l A / ` ` W A j 6 7 r l N m # x x # H t.d.f.O.t.l.f.o.t.v.l.h.;.;.h.h.;.L X.",
"  - % 6 r r 2 % B S S B q 3 2 2 2 2 2 2 2 2 7 r r z b z r r r e O & 7 r X x b % G t.l.f.o.7.l.f.o.7.l.d.h.;.;.h.h.,.X.L ",
"  - 6 Q 6 2 % % B W ! A / S A W A D D A A A x 2 2 2 2 2 2 2 2 2 2 w 6 O . 6 6 $ H t.l.f.O.7.l.f.O.7.l.l.h.;.;.h.l.;.L [ ",
"  # 5 S A A j + r k j j k k x N l M M k k k k k k j k z k k l k k ; . . . O . $ H 5.f.d.O.t.l.f.O.t.l.l.h.;.;.h.l.,.[ [ ",
"  - 2 N l l 6 . O . O O . O O . . O O . . O . O . O O . . O . O . O . . . . O X a f J 7.X.t.x.f.o.8.l.l.h.,.;.l.h.,.L [ ",
"    # # # # # @ @ # @ @ - @ @ @ # @ @ @ @ @ O O O @ O O @ O O O @ @ @ @ @ @ @ . X X 8 g L 5.f.u.O.8.l.l.h.,.;.l.h.,.L X.",
"                                                                                      * f g L t.O.8.l.l.h.;.;.h.h.,.[ X.",
"                                                                                        o O < G h 6.c.l.x.;.;.h.h.,.L X.",
"                                                                                            # % % J 5.3.u.*.,.h.l.,.P K ",
"                                                                                                    $ > h G ] f.f.;.K X.",
"                                                                                                        % % u H H H G G ",
"                                                                                                              $ $ $ $ $ "
};
