/* XPM */
static char *bb24c446931649b3ab95fde73ec9aa3bVaZAPmyNgrkCJJRL[] = {
/* columns rows colors chars-per-pixel */
"60 60 226 2 ",
"   c None",
".  c #0C1327",
"X  c #0D1529",
"o  c #0D192C",
"O  c #131A2D",
"+  c #1C1D2B",
"@  c #181A27",
"#  c #131D32",
"$  c #1A1E31",
"%  c #0B1C33",
"&  c #0F2138",
"*  c #142135",
"=  c #1D2134",
"-  c #14243A",
";  c #19253B",
":  c #1A293E",
">  c #23212E",
",  c #232333",
"<  c #232639",
"1  c #242A3C",
"2  c #2A2C3D",
"3  c #282636",
"4  c #353539",
"5  c #4D3B2F",
"6  c #432F35",
"7  c #443235",
"8  c #493536",
"9  c #4B3835",
"0  c #463338",
"q  c #4A3639",
"w  c #4B3A39",
"e  c #533E3C",
"r  c #563C3A",
"t  c #55403D",
"y  c #594638",
"u  c #4B483A",
"i  c #61443C",
"p  c #71443B",
"a  c #162941",
"s  c #1B2D44",
"d  c #1D2740",
"f  c #1E3046",
"g  c #1D324A",
"h  c #232D45",
"j  c #2C2E41",
"k  c #222E4B",
"l  c #302E41",
"z  c #213347",
"x  c #2C3345",
"c  c #23344C",
"v  c #2E3649",
"b  c #23384F",
"n  c #2F3B4D",
"m  c #323A4D",
"M  c #3A3945",
"N  c #243650",
"B  c #253B54",
"V  c #2A3D55",
"C  c #263F58",
"Z  c #293E59",
"A  c #353D52",
"S  c #393E53",
"D  c #453C49",
"F  c #2B4056",
"G  c #274159",
"H  c #2D435C",
"J  c #324257",
"K  c #394656",
"L  c #32455C",
"P  c #3B455A",
"I  c #33485F",
"U  c #3D4B5D",
"Y  c #3A4857",
"T  c #3B434E",
"R  c #2E4660",
"E  c #2E4861",
"W  c #314661",
"Q  c #354A63",
"!  c #3B4D64",
"~  c #364E68",
"^  c #3A4F69",
"/  c #3C5167",
"(  c #3C536B",
")  c #3A546A",
"_  c #3C5670",
"`  c #464548",
"'  c #5D4A46",
"]  c #5E4A49",
"[  c #534446",
"{  c #5C5048",
"}  c #434D5C",
"|  c #464954",
" . c #4E4D5C",
".. c #674B44",
"X. c #684A44",
"o. c #664A47",
"O. c #734C44",
"+. c #6A5249",
"@. c #7A5B4C",
"#. c #77544A",
"$. c #695654",
"%. c #7A5B54",
"&. c #735A59",
"*. c #786C46",
"=. c #6E675B",
"-. c #74625A",
";. c #7E6155",
":. c #404D63",
">. c #444F6B",
",. c #445265",
"<. c #42556C",
"1. c #44596C",
"2. c #4A5A6C",
"3. c #495567",
"4. c #515E6B",
"5. c #425672",
"6. c #445B74",
"7. c #495C73",
"8. c #4F5E78",
"9. c #465E78",
"0. c #535C75",
"q. c #775F61",
"w. c #665866",
"e. c #4E676F",
"r. c #4A6177",
"t. c #53637B",
"y. c #5B667D",
"u. c #56687F",
"i. c #5A6A7F",
"p. c #536474",
"a. c #7C6767",
"s. c #626B79",
"d. c #825448",
"f. c #835D53",
"g. c #8B6255",
"h. c #8C655A",
"j. c #87655A",
"k. c #936B5D",
"l. c #996F5F",
"z. c #966357",
"x. c #8F705C",
"c. c #98745C",
"v. c #87664C",
"b. c #876A65",
"n. c #936C60",
"m. c #937265",
"M. c #997466",
"N. c #9D7A6A",
"B. c #987866",
"V. c #857578",
"C. c #987773",
"Z. c #A76C62",
"A. c #A37A66",
"S. c #A4756A",
"D. c #A77E6C",
"F. c #A9796F",
"G. c #B37E6C",
"H. c #A47D71",
"J. c #A97D72",
"K. c #A77B7F",
"L. c #B67E7A",
"P. c #8F857D",
"I. c #96817F",
"U. c #919176",
"Y. c #8A8D69",
"T. c #A7866C",
"R. c #AD8473",
"E. c #A38479",
"W. c #AB8479",
"Q. c #A98677",
"!. c #B08373",
"~. c #B08C79",
"^. c #BB8B7B",
"/. c #B88878",
"(. c #BA907D",
"). c #BA9070",
"_. c #A6A06D",
"`. c #B7A578",
"'. c #5A6A83",
"]. c #919886",
"[. c #AB8A8A",
"{. c #B68B87",
"}. c #A39087",
"|. c #BC9282",
" X c #BC998C",
".X c #B4958B",
"XX c #B38A92",
"oX c #BFA397",
"OX c #C78B82",
"+X c #C49C8C",
"@X c #C79A87",
"#X c #D29F8B",
"$X c #CC9F93",
"%X c #C09D90",
"&X c #C98490",
"*X c #CBA18D",
"=X c #D3A085",
"-X c #CAA695",
";X c #D3A996",
":X c #DCAB96",
">X c #D7AE9C",
",X c #DBAC9B",
"<X c #D7A693",
"1X c #DBB19E",
"2X c #E1AB94",
"3X c #E0AA9E",
"4X c #EAB09E",
"5X c #E1B19F",
"6X c #E3B3A1",
"7X c #EBB4A3",
"8X c #ECBAA6",
"9X c #EABDAB",
"0X c #E6BBA9",
"qX c #F4BCA9",
"wX c #D2CA90",
"eX c #DADFA8",
"rX c #EDC0AD",
"tX c #F6C2AD",
"yX c #EEC8B3",
"uX c #F3C5B2",
"iX c #F5C9B6",
"pX c #F9CDBA",
"aX c #FECBB7",
"sX c #FDD2BF",
"dX c #F9FABE",
"fX c #F4F2AA",
/* pixels */
"                                                                                                                        ",
"                                                                                                                        ",
"                                      }.{.                                                                              ",
"                                    &XK.K.L.XX                                                                          ",
"                                  XXa.[ D o.b.XX                                                                        ",
"                                [.&.0 0 6 0 e j.[.                                                                      ",
"                                a.q 0 6 7 q 9 D a.                                                                      ",
"                              a.[ 0 6 6 7 q 9 9 [ V.                                                                    ",
"                              $.8 7 8 e i X.X.r e -.                                                                    ",
"                              [ 7 7 ..@.j.k.g.O.D ] P.                                                                  ",
"                              w 7 e @.l.A.T.B.g.O.t -.                                                                  ",
"                              8 r X.l.~.@X-X|.T.g.i +.                                                                  ",
"                            5 9 r @.D.;XyXyX6X@XA.@.+.                                                                  ",
"                              r O.k.(.1X0XyXrX;X^.Q.N.                                                                  ",
"                              ' b.Q.*X6XrXiXuX0X1X@X~.                                                                  ",
"                              ' N.|.>XrXiXpXpXiXrX;X~.                                                                  ",
"                              o.E.+X>X0XuX9X8XqX9X>X@Xv.                                                                ",
"                              $..X.XD.{.+X^.^.^.W.M.W.M.                                                                ",
"                              %..XA.#.O.O.z.).d.O.d.J.H.                                                                ",
"                              j.%X(.A.g.g.G.4XG.Z.OX3X{.                                                                ",
"                              l.-X5X5X<X;X:XuX7X4X7XqX=X                                                                ",
"                              l.$X7X9XuXuXqXpXqXqXaXqX2X                                                                ",
"                              c.^.5XqXsX8X7XpXqX4XtXqX2X                                                                ",
"                              `.R.,XqX9X<X8XpXuX2X2X4X=X                                                                ",
"                              wXB.$X7X3X#XJ.^.!.!.OX@X).                                                                ",
"                              fXT.~.<X*X|.D.l.n.H.A.D.l.                                                                ",
"                            eXdX`.x.(.~.N.~.^.OXS.d.n.q.                                                                ",
"                            ].dXwX*.M.m.f.z.Z.Z.Z.g.%.w.s.                                                              ",
"                        3.1.e.U.wX*.%.;.j.L./.OX&XJ.q. .y.'.                                                            ",
"                      2.) ,.3.3.U._.y $.m.R.S.F.S.C.o.D 0.'.y.                                                          ",
"                  r.e._ ) ,.U U | Y.*.t -.b.E.{. XH.o.D 2.i.y.                                                          ",
"                1._ ) ) / / Y Y Y | =.y { }.-XoX[.E.#.D >.t.i.y.                                                        ",
"              ,.( ) / Q I Q I J J P K u u a.C.m.m.H.o.| } 2.'.'.                                                        ",
"            7.5.) Q I L I I I J A P J S 4 4 [ j.C.=.` Y } 3.t.y.                                                        ",
"        ( ( ~ Q I I H L J H J J J J J J J x 2 M D M P } :.3.8.'.                                                        ",
"        6._ ~ E I H H H J F F J F J J J J A m n V S } ! :.:.6.r.                                                        ",
"      e.r.) W E H H V V F V V F H A H H L L L P P Q :.:.,.( 5.9.p.                                                      ",
"    1.2.( ) W R F V V b B F F n Z A J L L P Q Q Q ! ^ :./ ( <.6.r.                                                      ",
"  3./ ~ Q I W W F B V b b B V V B Z V J H I I I Q ! :.:./ ( ( 1.9.                                                      ",
"  2.1.) I V A R V B b b c c n V n V V V F F L L P W Q Q ! ( ( <.6.r.                                                    ",
"0.8.5.^ Q V N B V B b c z z z V V b V A H V F F A W W Q W ^ ^ ^ 1.6.                                                    ",
"8.5.^ W Z B n g b c c c z s s n V b c V H H H G Z Z A Q W W ^ ^ ( 6.                                                    ",
"5.^ ^ W A B c c z z s z f s a c V B N N V H I H W Z A W W ! ^ ^ ( <.                                                    ",
">.^ W A B N c c z s s z g f : s B B N b B F I I L L Z W W W W ~ ^ (                                                     ",
"P S A A n c f k f : s : f s : : k n B N B V H H Q H H H H W ~ ~ ~ ^                                                     ",
"S S m N c k s s : - : : : s s s s N B B B B Z H W L H H Z W W W W ^                                                     ",
"S S m v c h h s : ; ; ; ; : s a d g B Z B Z Z Z Z W H L W W H W W !                                                     ",
"S m v k k f d 1 ; - * ; ; - s s d s N B Z Z H Z Z Z G H Z W H W W !                                                     ",
"A m m x h h : ; ; * * : - - a f a a g B C C G G Z Z Z R H H H H W !                                                     ",
"S m x x z : ; ; - * * ; - * a s f a a b C C G G R Z Z Z H H H H H U                                                     ",
"v m x h h d ; * * o O * - * - s f s s g C Z R H Z Z C B Z H H H W !                                                     ",
"l x x j h ; ; # * o o = ; * - : g s s g N Z G G Z C C B Z Z R W W )                                                     ",
"x x h j 1 ; # # O o o O - * * - g g g a g C C C C C C C C Z G R W !                                                     ",
"x x 2 1 1 $ # $ O X X # # * # # a g a g g b C C B B C C C Z Z R E !                                                     ",
"x x 1 1 1 = $ # O X X # # # # o & a g a g g b C C B C C C G R R E ~                                                     ",
"x 4 j 1 < = $ # O . X % o o X X % a a g a a g B C C C C C R E E E ~                                                     ",
"l l 3 < , $ $ O X . X O X O . . o # s s s s g g B C C G G E R G R ~ /                                                   ",
"2 2 2 , , $ $ O . . . X X X . . X % a a a a a g b b C R G R G E H E 3.                                                  ",
"3 3 , $ $ + @ O X . . X X . . . X % & # a & a a a g B G R E E E E E 3.                                                  ",
"3 > > + @ @ @ O X . . . . . . . X O & # & a # # a a g R G R E E E Q ,.                                                  "
};
