/* XPM */
static char *e4598170258249cb8b9f4e065c770ae4zYttD34a8YCrxanE[] = {
/* columns rows colors chars-per-pixel */
"60 60 223 2 ",
"   c #3F6B1F",
".  c #355E25",
"X  c #366325",
"o  c #3A6525",
"O  c #376925",
"+  c #3B6C24",
"@  c #396728",
"#  c #3D6D29",
"$  c #356529",
"%  c #3D7324",
"&  c #3E7C24",
"*  c #3D7329",
"=  c #3E7C29",
"-  c #377126",
";  c #496E1F",
":  c #467C1F",
">  c #4A7E1F",
",  c #43761F",
"<  c #50771F",
"1  c #517D1E",
"2  c #476720",
"3  c #436C22",
"4  c #486E20",
"5  c #426C2D",
"6  c #427425",
"7  c #4A7521",
"8  c #437C25",
"9  c #4B7C23",
"0  c #43752A",
"q  c #427C29",
"w  c #497B2D",
"e  c #48772D",
"r  c #537D22",
"t  c #426F32",
"y  c #477731",
"u  c #457D32",
"i  c #4C7B37",
"p  c #4D7C38",
"a  c #3E821F",
"s  c #3E8325",
"d  c #3F8A24",
"f  c #3F8C28",
"g  c #47831F",
"h  c #48821E",
"j  c #428B1F",
"k  c #4C8A1F",
"l  c #54841D",
"z  c #538C1E",
"x  c #5C8B1D",
"c  c #43921F",
"v  c #489B1F",
"b  c #49971F",
"n  c #53931F",
"m  c #5C941D",
"M  c #569B1E",
"N  c #5C9C1E",
"B  c #628E1F",
"V  c #64941E",
"C  c #639B1E",
"Z  c #6A9D1F",
"A  c #51A21F",
"S  c #5CA51E",
"D  c #5BAB1E",
"F  c #54A81F",
"G  c #57B61F",
"H  c #64A41E",
"J  c #6AA31E",
"K  c #64AB1E",
"L  c #6BAE1E",
"P  c #72AD1F",
"I  c #72A41E",
"U  c #64B31D",
"Y  c #6BB31E",
"T  c #64BA1F",
"R  c #6BBB1E",
"E  c #73B31E",
"W  c #75BB1D",
"Q  c #7BBC1D",
"!  c #78B51E",
"~  c #438425",
"^  c #4B8424",
"/  c #448B25",
"(  c #4C8B24",
")  c #448329",
"_  c #4A852A",
"`  c #468B2A",
"'  c #4B8C2A",
"]  c #538423",
"[  c #5A8522",
"{  c #538C23",
"}  c #5A8D21",
"|  c #51852A",
" . c #528D29",
".. c #459324",
"X. c #4B9425",
"o. c #469B22",
"O. c #4B9B24",
"+. c #469329",
"@. c #4B932A",
"#. c #4C9B29",
"$. c #539425",
"%. c #5C9423",
"&. c #549C24",
"*. c #5B9C23",
"=. c #53942A",
"-. c #529C2B",
";. c #5B9C29",
":. c #4E8534",
">. c #4D8A33",
",. c #4C853B",
"<. c #4F8938",
"1. c #448632",
"2. c #548D32",
"3. c #538C3B",
"4. c #528636",
"5. c #4E9033",
"6. c #5A9433",
"7. c #539B31",
"8. c #5D9B35",
"9. c #569339",
"0. c #5B943B",
"q. c #5D9838",
"w. c #559235",
"e. c #629522",
"r. c #629C23",
"t. c #6A9D23",
"y. c #629C2A",
"u. c #60972D",
"i. c #709D20",
"p. c #63943A",
"a. c #649D3A",
"s. c #669937",
"d. c #719E3C",
"f. c #719D34",
"g. c #46A421",
"h. c #4CA324",
"j. c #4DAB23",
"k. c #4DA329",
"l. c #4EAA28",
"z. c #47A823",
"x. c #53A324",
"c. c #5BA324",
"v. c #53AB25",
"b. c #5BAB24",
"n. c #53A42A",
"m. c #5BA429",
"M. c #54AB2A",
"N. c #5AAC2B",
"B. c #4EB323",
"V. c #4FBB26",
"C. c #54B324",
"Z. c #5CB325",
"A. c #55BB26",
"S. c #5CBB25",
"D. c #55B22A",
"F. c #5BB32A",
"G. c #55BA29",
"H. c #5CBB2B",
"J. c #59AE30",
"K. c #57A732",
"L. c #5BB431",
"P. c #64A423",
"I. c #6CA422",
"U. c #63AC24",
"Y. c #6AAC23",
"T. c #63A529",
"R. c #62AC29",
"E. c #6EAB2B",
"W. c #6DA22B",
"Q. c #74AE22",
"!. c #64B323",
"~. c #6BB423",
"^. c #64BB25",
"/. c #6BBB24",
"(. c #62B52A",
"). c #6AB32A",
"_. c #62BB2A",
"`. c #6ABD29",
"'. c #72B422",
"]. c #72BC23",
"[. c #79BC21",
"{. c #7DB721",
"}. c #69A43C",
"|. c #67A238",
" X c #61BB31",
".X c #75A838",
"XX c #76C11E",
"oX c #7CC11D",
"OX c #7ACF1F",
"+X c #5CC225",
"@X c #5CC22B",
"#X c #5ECC29",
"$X c #64C225",
"%X c #6CC425",
"&X c #6ACB24",
"*X c #62C32A",
"=X c #6CC42A",
"-X c #66CD2F",
";X c #6CCB2C",
":X c #64C924",
">X c #73C323",
",X c #7AC322",
"<X c #73CB25",
"1X c #7ACC24",
"2X c #73CD29",
"3X c #72C028",
"4X c #65D22C",
"5X c #6CD42B",
"6X c #6DD727",
"7X c #7DD522",
"8X c #75D527",
"9X c #63C431",
"0X c #67C930",
"qX c #6ACD31",
"wX c #76CD30",
"eX c #86A439",
"rX c #89A33B",
"tX c #96A93F",
"yX c #81C822",
"uX c #85D724",
"iX c #92AB40",
"pX c #97B142",
"aX c #A1AD41",
/* pixels */
",X. R.#.*.N ( /. .F.' w wX` W / T.N.' 1Xo n.k.X.J { v.@.m.P.o ^.@./.r.;.].* C.* _ !.@.W s ).n.-.3X. M.#.&.r.=.H.) b.} O ",
"3Xm.&.=.x.Z.*.& 6 q 0X7.).7.M.v.~ ~ o m.x.@.E.@.$X;.8 8 # >X$.*.`  X=X%.` # _ C.( m.' C.O.~ ^ o R.X.;.T.-.=X( @.6 6 >X( ",
"= $._ #. .h./ 9 F.X.` { n.K.$.o.& ~ U q ) x R./ n.n.% c.&._ =./ O.( F.@.^ g.& ` =.#./ -.O.% ;.b.% ~ e.m.` n./ _ ~.X.) { ",
"% s ..) ( `.j.Z.-.(.+ K _ ) Y.$Xz.~ k.s z m.) %.$Xl.v.@.D.% X.' = *.;X_.m.#.m.9 K ) ) ].S.g.~ D.8 m ..' *.qXD.x.#.F.O O.",
"9 N.../ ..c.k -.(.r.;.M.~ / v.*.8 O.$.8 U.n.( -.x.{ ` M.m.: v.@.#.n.T.=.#.b.r.m.O.~ ` v.{ 8 k.%.q !./ X.X.A ^ / F.;.( h.",
"%.Z.X. .X ( R 3 $.O.U.O.' q O >Xn 6 P.H ^.X.@.o ( <X6 ( h.P.h.X. .o !.K ; $.O.^.n.` % + OX8 { P.H ^./ ' X $.U + $.n.U.v.",
"h.X.].H S N A.Z.A.X.O.X.! Y Y.(.B.R b.h...P.Q.b.X.5X;XS.o.x.;.oXS N x.B.^.v...O.P.! K J S.B.XXx.h.X.I.'.M X.5XS.$XF.O.;.",
"` &.%XD.N.O./ ~ D.~ ~ ! %Xj.m.X.s ..h.& { <XH.N.n.` ^ F.X.~ c.;X9Xb.+.` ' @X~ ^ ,X^.j.x.' s k.o.~ r.;XH.M.#.` ( D.` ~ U.",
"+ M.`.%.$.r.] -.( e.6 ^.[ ( n.] V ( _ 0 #.v.r ~ ..% / = ) % A.).%.&.%.~ s } x ~ _.] ^ -.l I.~ ^ + v.&.] ~ #.~ @.% ~ % 5X",
"O.C.%X*.` P.S.N.'.r.v.C.H n.-.N._.~.Y./ D.>XY.#.@.j.h.P { #.qX>X$.` Y.j.c.P %.v.Z.H #.@.j.(.'.m.+.D.,Xm.@.-.*XM.[._ D.qX",
"n.^ O.*.Q.{ _ O.h.*.N.8 Z.I n _ $.Z.#.k.' N.).P.^ & $.$Xs k._ F.I.Q.9 ~ x.o.U.-./ !.P ( _ $.S.d k._ b.Y.N.q ~ &.(.-.J.| ",
"P.( ^ %X*Xb.k & *.*.X.V &.C.A.( *.^ / *.$.6 `.S.Z.a ~ ` X.P.$.{ T +X$.k & r.&.$.V x.v.j.X.z ^ / r./ ~ (.z.v & & / &.*.( ",
"O.6 % D.D.XX!.d !.h.~ + $.j.F.` D.K h.c.8 % O.h.+...O.O.O.#.w ~ h.j.Q v./ _.X.~ + &.z.X.` Z.U.v.c.% 8 h.o./ O.X.h.M.-.0 ",
"~.+ M.@./ XX&.l.6 m.( %.>X8 m...X.#.8 Z.O O.X.-.b.8 h.~ ..P.% 9X@.$.1X-.O.0 ^.8 Q.).~ N.` h.` _ F.% M.` ..X.@.h.0 b.*.q ",
"!.m./ #.#.$X~ 8 l 6 C.` P.=.b.!.& a O / l.' T.$.^./ & & o `.$.-.K.N.D.~ 8 1 ) A.' P.@.^.x.% g o n.N.$.T.#.j.=.& & + %X/ ",
"q ^ ^ +._ /.K - `.U.0 & $.P.r.^.~ 8 j.) ] { b.%.R.v 8 X.v q ^ 7.J.{ R M % %X( % 8 R.V P.D s ~ j.8 ^ =.T.%.b.+.8 o.x._ 9 ",
"$.x.*.= X.`.~.v.X.N.l S & = ~._.F H +.~ H o.9 %.=XM.z.' M.X.b.;.' c.`./.c X.X.x x.q ~ [.l.!.N k.^ U.` ] ;.S.O.g./ x.x.R.",
"( x.+.@.s &.} ~ O.V $.(.d / / Y.^ X.P.{ M.X.n.` &.( % X...*.F.@.@...m.q / x.x x.x...@.o.P.9 X.*.^ D./ #./ c.^ 8 O.g ;.h.",
"$.j.$.%.; $.8X> %.O.x.v ;.6 4 ^.x., c.b.U.X.y.O ~ 7Xh z ..x.o.$.{ . Z.b.+ $.S ....) + O &X..> v.U.A z { . $.OX: $.O.x.o.",
"D.&.[.U !.!.G.Z.OXb / U.>Xb.].h.B.v.j.O.&.1XM v O.@X^.&X....*.oX~.z.-.-.) q / / O.@.~ D M.j.A.v.h.U.1Xv l.x.-X`.;XO.O.*.",
") c.Z.#.c.X.& ] x.~ 8 F j.N.+.s ~ { k.q &.;X#.@.X.8 _ #./ % ~.S.n.' ~ * y y 5 @ y # &.~.& 8 ;.#.% !.G.k.n.@.~ ) l.~ ~ ].",
"6 o.R r.( P.Z Y.[ t.% C.9 & x.J N *.e.q n._.x / #.%.'./ ^ % G.1X%.c.%.p }.0.a.3.0.p b.Z.& N x %.0 H.m.] ..-.%.Y.q ' ~ A.",
"M.h.+Xx.' -.A.n.U e.b.(.yX$.' ^.^.U.~./ 9X1XY.@.` #XF.[.{ k.h.$Xm.n.w }.eXd.6.0.}.6.1.` v.!./.m.#.=X1XP.7.` @X(.[.^ M.h.",
"M.8 X.&.L ^ 6 ..n.H &.{ U.R.m.% = v.$.x.8 ..m.x.{ 9 ( F./ F.w M.N.( e s.rXd.5.pXf.1.f.N - / (.$.k.q #.P.R.^ ] x.M...#.6 ",
"d / % R /.U X.8 @.X.*.%.%.qX2X! *.& -...` % C.v./.N ~ ~ ..O.` _ uX%.:.a.6.w.p.aXp.s.oX*XM z s X.@./ % v.S.>X*.& / / / @.",
"O.# ) x.S %.O.o.O.].$.O @.D.D.@.Z.X.h.K 9 % N.v.+./ h.O.x.$.o / M.R E.0.2.q.s.rXtX:.-.-.-.v.+.h./.3 ` n.o.5.n.o.h.b.g - ",
"uX^ h.&.X.W r.k.# R.c.& M.= ~.X./ ..O C.q Y.#.( U./ #.q =.oXq H.( $.;.3.q..Xa.9. .,.5 v / X.~ q S.% /.' c.U.` F.# T.E ) ",
"-.O.^ '.$.Z.~ % a + Z.~ #.#.N.b.8 ~ 9 8 H.~ #.X.%X/ % a O k.-.T.'._ t.p.8.iXeX9.a.0.' l.#.% ^ 7 @.M.' #.m.G & % / + D._ ",
"q % ) &.{ !.D & O.g.o ^ @.#.~ $X&.~ <X~ + & @.~ ~.U C $.j.6 9 +.*.8 / <.q.=.2.s.0.|.0 ;.^.X.{ &X8 8 / @.^ %XK C g.g.4 ~ ",
"^ Y...q x.^.O.M.#.;.> ].q ~ x.O.o.v x.8 d o.8 / F.o.Z.&...^ !.& ) ` K w ,.0.3.4.a.<.q %X#.h.O.x.% O./ 8 X.F.n.^.$./ } (.",
"_ ^./ #.~ x.P.^ R.r.$.m...' / K 6 s &.k M ..+.& ..n + +.C ( (.../ ;.<Xy $.,.| y.u _ y ~ S 6 ` *.( x./ +.& X.%.- -.m n.).",
"&.h.( } O ~ 5X~.U.x.U O.( % + ^.v.h *.&.x.X.{ < h &XM J n.Y O.=.] ;.n.^ 1X .b.D.w  .' . :Xo.k *.A h.k  .< X.8Xz P.x.k.L.",
"h.( '.T v.o.S.(.+X/ k.r.R g.h.h.h.S.Z.d ~ '.R Z./.v.h.+XX.O.z oX^.D.M.n.).n.n./ 5 -.j.y ` g.$Xx...( ].U S.E l.M.+X/ ..%.",
"q U.F.+.=.X.6 ^ X._ % $Xn.( P.= 9 ( #.% k D.+./ ..6 ] $.s % /.M.d $.~ 9  .n._ ) i ` $.;.# ^ =.@.6 O.v.+.` ..6 [ #.& 6 <X",
"^ z.X.& ....S m.P P.& B.r.$.m.P.c.&.%.& v o.9 / ..$.~.%.$.q S.X.' -...U.R.{.%.X 2.m $.;.C N.%.%.& g.n q ....*.U.} $.g A.",
"2XO.z.*.y.~ h.b.^.& v.N.^.$._ x.O.).b...h.^.U.' ~ h.M.7X%.$X+.v.T.T.@.D.`.`.@.3.K.!.=._ v.k.%X$.O.n.^.c.@.) j.(.<X*.;X#.",
"K.^ $.c.].X.9 / ..#.@.q b.U.].6 8 O.~ x.~ ~ U.x./ + $.M.` k.^ X.R.].^ r #.#. X-.& U.U.'.% ^ x.s k.8 / U.h./ % $.@.#.n.] ",
"O.^ + z.z.o.O.& O.../ q ( C.z.X.j & O./ / % g.j.z.c ~ X.#.` _ 8 @X@XF.b % M...@.% x.j.j.../ / O./ ~ % C.A M.o.% ..../ / ",
"b.O ( #.M  ./ U n.x.` % k.X.Y ~ U.v.O.!.# _ #.X.{ ~ j.X.b.&.@ #.#.). .O.K X.h.& w o.O.L ) Y N.N.U.X ` n.x.^ #.M.O.b./ # ",
",X_ /.@.b.U r.X.# / o.^ ~.q ^.x.' ` . %Xh +.x.=.>XP...* 8 Q ~ ].' Z.~.*.@.o O./ $.R.~ $X+.-._ * %X8 k.X.x.,X$.m.$ { E & ",
"@.m.( #.@.h.h % j % k.~ @.#.+.o.% g n 8 k.] '.` h.( % N 6 n.P...#.@.v.~ & ..% k.~ X.@.o...+ n z / ..e.E.+.l.~ % S 6 M.z ",
"8 8 ' ` { ^.z.{ #.v.o C =.~ P.S.v 8 S./ 7 *.@.( x.z...-.D.o ~ _ ` *.;Xv.{ o.X.3 P.@.~ Y.C...~ S.% 9 %.+.] H.j.~ x.F.o ( ",
"% h...8 O.b.' j.&.E.( Z.& ) !.m./ o.@.& b.v.q ;.v...M.n.x.% h./ 8 h.).+.D.$.r.&.v.& / ^.X...O.@.% /..._ &.h./ g.X.&.& j.",
"} b.s @.% b J + &.c.P.o...) = Y 9 % c.m R./ #.% &.Y.X $.x.C x./ @.% S r.3 x.*.U.X.+.= ~ E + _ U.m Z./ @.- N *.o -.&.*.n.",
"h.x.L %.: k +Xc.O.k.b...r.x > `.B.H c.b.v.$.t.h ~ 6Xb.m.O.v.x.L ] 9 O.G c.X.c Z.m.r.l h &Xj.Y c.b.O.$.e.9 / 6X&.$.j.N.(.",
"..( ,XA.Z.c.g.x.C.....t.7X+X!.c...F.G / =.'.;X$Xh.k.m.+XO./ m.>XS.;XZ.M.N.A.d / Q.7X&X/.h...;X(.d { ,X&XD.k.F.b.+X..#.r.",
"+ O.Z.$.$.$.% & ~ ] 9 &X$.~ / ~ ] & ` q n ^.` _ / + ~ ) ~ % A N.=.*.^ 8 8 ^ ] 8 2X( _ @.9 ^ ` 7.% b.F.' / ' 6 ~ ` 8 % S.",
"~ g.R *.f Y.S X.I.I.( A.t.-.#.x.].r.P._ g.^.V +.X.o.h.*.X.~ z.E $./ '.Z.n.I %.k.$XV ..n.R.].r.T.~ j.K m / X.o.O.r.( #.4X",
"j.@.v.&.W.^ #.&.^.n Z.+.(.P.%./ #.`.&...#.`.m.*.^ o.X.XX~ h.X.v.%.e.=.N.(.b.P.F.O.b.r.^ #.-.>X..k.@.%X*.$.~ #.x.>X@.H.-.",
"T.=.$.Y >X&.9 / $.*.$.} U.~.v.~ %.../ x.~ ) U.`.x.+ ~ @...m._ *.~.<Xk : / $.R.;.e./.!.h.] $.#./ x.~ ' /.v./ + / @.m.-.] ",
"c.( % b.v.U b.% ~.#./ 9 ~ C.j.X.h.r.O.N ( + x.S.F.c ~ #.O.m.q 8 Z.C.Y x.& !...$.6 X.z.j...&.N +.C ~ + v.z.O.v & o.#.$._ ",
"x.5 #.../ W b.g.@._._ ] [.#...8 x.F.@.Z.# @.+.X.#.) v.#.h.-.o x...X.W N.v.@.Z.w V ~.' X.) v.x.O.N.X #.X./ ~ / v.@.S.^ 0 ",
"].;.#.` O.%X..~ ; ( v.$.).' D x.~ ~ . M.+.X.&.@.C.+.~ % + >X' h.` x.&X@.' ; X.x.m.R.` /.N.` 8 o x./ &.=.X.z./ X.O _ W ` ",
"@.-.~ #.@.v.( % U.^ +.) ;.Y.m.!.% ' ! ~ X.{ ).;.x./ : b & 7.$.~ O.@.x.: ` Y q @._ ).r.R.c.% / j ~ ` %.~.$.x.g q N.8 -.~ ",
"$.( *.) { 1X<X/ &.v.; $.` =.J 2XZ.z G./ x ..( %.=Xl.>Xc.C.=.n { ) $.1X>X@.N.O.; j ' ( ! C.D ^ B._ N / =.%.`.z.X.m.G.^ *.",
"$.v.X.~ O.v.{ ..O.%.*./.s ` v.;.( U.$.9 N.o.^ $.v._ O.x.` &.v.X.` O.;.( F.M.} Y.b.& / N.$.&.U.=.^ Z./ ( x.x.~ O.n.~ F.(.",
"{ j.~ $.O &.[.; X.N &.O..._ O >X$.+ R.N x./ &.O / 1Xo ^ / $.v X.-.0 ~.J + *.*.x.X.-.0 8 7X6 6 U.*.x.~ #.O &.~.o ( X.&.o.",
"v ..Y.J N T.4X(.W ..O.^.'.{ J v.B.A j.v.c.'.t.m z 6XT /.n.M.X.P V C F.#XD Y O.o./.Y.n Z l.j.F g.b.m.P z a ..&XU D O.v.X.",
"/ *.>XB.M.x...=.$X/ s R.$X_.H.N.X.#.z.& c.2XS.^.(.#.X._.n.@.).=XC.v.M./ ;.$X` ~ ^._.C.N.O...h.o.) ~.8Xz.F.O.f $.@X^ ' Y ",
"% &.j.} } *.9 V ~ l 6 S./ q ` % 8 e.~ 6 / j.^ 8 / 7 { ) ) % ^.x.{ r.] ] V ~ [ & v.~ q / % ^ %.& + O.h.^ / / 9 ( ` ~ 6 S."
};
