/* XPM */
static char *_37303be321147b5dbf1cf1526c58ca85UmwajFWGr7CfPS6[] = {
/* columns rows colors chars-per-pixel */
"60 60 204 2 ",
"   c None",
".  c #1E050B",
"X  c #1F0207",
"o  c #1C1416",
"O  c #171218",
"+  c #131C1F",
"@  c #1B1E1E",
"#  c #260506",
"$  c #290705",
"%  c #2C0A05",
"&  c #230B0B",
"*  c #2E0D08",
"=  c #220508",
"-  c #330D05",
";  c #320E08",
":  c #25110C",
">  c #2A160B",
",  c #361106",
"<  c #3B1305",
"1  c #341108",
"2  c #3A1509",
"3  c #341B0A",
"4  c #3B1C09",
"5  c #3B1A07",
"6  c #251B17",
"7  c #2B1B14",
"8  c #231110",
"9  c #1D341D",
"0  c #1B3C1D",
"q  c #2A230D",
"w  c #2F280E",
"e  c #39280C",
"r  c #242B12",
"t  c #283916",
"y  c #323714",
"u  c #0D1F27",
"i  c #031E2D",
"p  c #0B1E28",
"a  c #111C22",
"s  c #0F2127",
"d  c #04232F",
"f  c #0B242B",
"g  c #062D2E",
"h  c #0A2C2D",
"j  c #0B3E24",
"k  c #06332E",
"l  c #09352C",
"z  c #07382F",
"x  c #093C2D",
"c  c #042631",
"v  c #082730",
"b  c #052B32",
"n  c #063431",
"m  c #073B31",
"M  c #083D31",
"N  c #083531",
"B  c #411706",
"V  c #441A07",
"C  c #491E07",
"Z  c #431B09",
"A  c #491F09",
"S  c #46230A",
"D  c #4C2209",
"F  c #4C2C0D",
"G  c #4C2107",
"H  c #512509",
"J  c #542A0A",
"K  c #592D0B",
"L  c #47310E",
"P  c #5D310B",
"I  c #58380F",
"U  c #4C3610",
"Y  c #62350C",
"T  c #6A3D0E",
"R  c #63390D",
"E  c #1C411C",
"W  c #244519",
"Q  c #254D1E",
"!  c #35481A",
"~  c #2D631E",
"^  c #0D4827",
"/  c #0A432D",
"(  c #0C4C2E",
")  c #1F4721",
"_  c #114D23",
"`  c #104B2D",
"'  c #0E532E",
"]  c #0F592D",
"[  c #12542C",
"{  c #115C2D",
"}  c #185829",
"|  c #185C23",
" . c #074032",
".. c #094331",
"X. c #0B4B30",
"o. c #0E5330",
"O. c #0E5830",
"+. c #125631",
"@. c #135B31",
"#. c #2E4520",
"$. c #2E5020",
"%. c #2A5F20",
"&. c #235623",
"*. c #1D6D27",
"=. c #12632D",
"-. c #156C2D",
";. c #1A6C2B",
":. c #196425",
">. c #1A7427",
",. c #16722D",
"<. c #19742D",
"1. c #1A7C2D",
"2. c #197726",
"3. c #146331",
"4. c #1A6433",
"5. c #166A31",
"6. c #196932",
"7. c #167030",
"8. c #1A7332",
"9. c #1D7B31",
"0. c #246B2C",
"q. c #296827",
"w. c #356726",
"e. c #227E2D",
"r. c #25782C",
"t. c #397A26",
"y. c #207031",
"u. c #227D35",
"i. c #257E39",
"p. c #5F400F",
"a. c #454113",
"s. c #5A4413",
"d. c #534A14",
"f. c #405018",
"g. c #445D1C",
"h. c #585716",
"j. c #575B19",
"k. c #6E410E",
"l. c #72430F",
"z. c #644D15",
"x. c #764710",
"c. c #764910",
"v. c #6C5715",
"b. c #436820",
"n. c #537223",
"m. c #1F8F27",
"M. c #1D832D",
"N. c #1F8A2C",
"B. c #1C8227",
"V. c #1E8231",
"C. c #1F8930",
"Z. c #22842C",
"A. c #218C2D",
"S. c #328627",
"D. c #23932D",
"F. c #269B2E",
"G. c #299C2E",
"H. c #228433",
"J. c #2A8333",
"K. c #248C32",
"L. c #298E36",
"P. c #368C32",
"I. c #259331",
"U. c #2A9435",
"Y. c #269930",
"T. c #2E9E36",
"R. c #2B9B34",
"E. c #2E9B38",
"W. c #2E903D",
"Q. c #319E36",
"!. c #309F33",
"~. c #31993D",
"^. c #369539",
"/. c #27A12D",
"(. c #2AA42E",
"). c #2BAA2F",
"_. c #2DB12F",
"`. c #2CA233",
"'. c #2DAB32",
"]. c #32A534",
"[. c #36AF35",
"{. c #33AC36",
"}. c #33A33A",
"|. c #35AB39",
" X c #39AD3A",
".X c #38AC36",
"XX c #2FB132",
"oX c #34B434",
"OX c #3AB435",
"+X c #38BF36",
"@X c #3BB43A",
"#X c #3CBB39",
"$X c #37BE33",
"%X c #4E862A",
"&X c #43952F",
"*X c #43BD3D",
"=X c #41B936",
"-X c #39C337",
";X c #42C43D",
":X c #48CA3F",
">X c #379F40",
",X c #40BB40",
"<X c #43C840",
"1X c #48D042",
/* pixels */
"                                                                                                                        ",
"                                                        (.                                                              ",
"                                                oXOXU..X.X].Q.OX                                                        ",
"                                              E. X@XA.A.A.2.e.].#XG.m.  (.                                              ",
"                                        Z.*X X~.!.D.Z.>.>.M.Z.e.G.m.N.B.R.@X                                            ",
"                                e.  Z.0.K.D.>.<.B.1.N.N.>.D.oXI.,.N.F.'.'.E.V. X:X*X;X                                  ",
"                                >.>.;.>.2.;.-.-.-.N.(.A.Y.I.M.,.C.I.Y.'.H.A.H.U.`.R.oX                                  ",
"                              y.4.@.3.=.Z.1.1.<.1.N.F.1.H.T.C.-.9.I.N.1.8.D.E.I.1.D.R.*X                                ",
"                              X.m ' { ] o.=.=.O.<.M.1.<.N.Y.D.1.-.C.`.N.8.D.Y.D.A.V.K.-XXX                              ",
"                          H.@.X.' ] ] -.] ,.,.<.1.<.-.-.1.V.I.1.=.1.R.V.N.V.}.Y.K.A.M./.[.#XOX                          ",
"                          @.6.@.( ' =.A.5.-.,.M.,.,.1.-.<.1.Y.K.1.M.1.A.A.M.C.5.A.H.2.B.F.[.OX-X                        ",
"                      ( ' ' ' ] ..' =.9...o.=.O.o.{ =.O.<.<.I.T.A.D.I.R.M.<.N.1.M.I.D.N./.F.{.;X                        ",
"                      { { ' / ' ] ( { e.X.=.' -.1...9.1.,.-.1.B.,.Y.E.V.<.D.I.N.A.M.A.A.C.N.I.{.                        ",
"                  3.` { ] ' ' ' { 6.' { -.-.' -.1.( -.1.=.-.-.,.5.E.I.1.Z.5.1.7.M.9.C.,.|.Y.`.T.L.=X#X                  ",
"              x ........( ] { { ( =.' ' -.<.1.o.' o.=.-.=.5.9.7.=.-.1.9.}.5.1.H.M.K.W.8.I.E.@XD.8.L.;X                  ",
"              / M M M / ( { { ] ' { ' ( ' -.5.] =.X.@.=...o.@.@.-.-.-.3.L.9.,.,.<.9.7.M.7.9.8.C.M.1.OX=X                ",
"                ' ( ..x ..' ' ..' ' { =.( ' ] ..-.=.{ { ..-.( 6.9.-.] =.C.1.<.,.3.N.7.D.N.C.8.V.V.V.OX                  ",
"                  { ]  .X.' ] / M ' =.] ] +.] -.-.C.3.H.i.=.,.K.M.] -.=.M.Y.1.8.-.-.M.D.V.9.1.1.N.{.#X                  ",
"              / ^ ( ' ] X. .=.] ( ..' ] { @.' ,.<.@.] 3.5.{ ' -.1.3.=.1.3.<.M.M.5.C.Y.I.1./.}.5.M.Y.oX                  ",
"              h x x x ( ' ..( ' ' / ( =.' ( ' =.D.=.] ' =.{ ( ( -.1.+.X.,.=.-.C.6.V.V.C.1.C.Y.H.V.(.-X                  ",
"              _ ^ ( ../ / ' / m ] =...x ( =.] ' X.( ' ..( ( [ [ ' ' 1.,.<.<.{ 5.9.7.N.1.I.I.C.`.{.|.T.).                ",
"            x / M ..( .. .( z n ( ( x j ..( ' ( ( ' <.=.( x / ( =.' -.N.7.9.D.@.o.-.=.,.V.K.,.1.V.Y.I.`.OX              ",
"            ^ ^ ( ( .... .( l ( o.....{ x x ' ( o.' ] ..{ ' ' / ' { =.<.1.=.1.,.o.] -.Y.C.1.N.1.<.<.N.A. X8.            ",
"                ^ / '  .M ' ' / ( ..( ' l l / / ' =.' ..{ ' { ' ../ { =.-.5.X.-.V.,.=.o.O.K.K.I.1.1.M.C.L.U.            ",
"                x n ..( ( ] ( / / z x x x / ,.5.X.{ ( x [ ( 4.3.[ x / ] { ,.3.+.,.-.=.' ] -.<.M.M.1.N.D.A.U.            ",
"                z m x ..x k / ] x z x ] =.....,.X.' =.x ' =.o...( { / / ^ ,.5.[ { 1.N.I.1.' ' =.,.K.N.D.`.T.            ",
"          / ^ / k x z x  .x ( ' / M x / ] ] -.=...x ' x { -.-.{ ( ( ( [ ( =.<.,.( 3.,.5.,.o.' -.1.8.,.1.9.I..X X        ",
"          ^ / ^ ..m x z ../ x z x X./ l g ' =...M [ -./ / ..[ { ( x ^ 8.@.( ,.1.=.-./ ' 1.=.-.-.-.-.8.9.@.K.D..X        ",
"              | / g g k ( / l ..' / g x l ..x x ..( ' ' 3.' ( ..' =./ / ( / ( ' ^ / x x ( -.2.=.' -.8.C.=.H. X,X        ",
"          b c N x k g z / k x l x ( ' k / ' k k ..( ( { -.( ( ..' o.( / M M { { k l l g / =.{ =.@.@.o.{ -.1.Q.          ",
"          m g b b k m m k k z / k / ( / ' x l x ] ..( k k / x ' ' ( ( [ [ ( ' ' / x x j ( / ....( =.H.Z.3.1.            ",
"            n n b n n k z ..n x x / ..x l k x ..x x / k g ' n / ..z x ( ..' { ^ l / { { / / ' ( / ' 8.i.y.{ J.0.P.      ",
"              g c c b b k M  .M X......./ x  ...k x / x ' o.M ../ ..' =.' ] ' ] / ' ..' / { ' / l [ ( / ( / j j ;.      ",
"                c d c n n b m  .X.@. .x k g m x k k k k / ( / x ( n / ( .. ...] ' / M x x / ' / m / ^ x x / ^           ",
"                  i d c b g b m M m m g ..M m m k ..( m /  .k /  .k x ( M / x x / ..( x x x ^ ( ..l ( ( x / |           ",
"                  g d i i d c b g b d b z m ..X... .m  .../ k m ..x l l x / ' ( ..x X...k ..x ( x x { 4.                ",
"                  _     d c i c c c c c n c g n m  .z z k ( / g m n h k l / l b n m N n d b g g N +.                    ",
"                          g i   b c c c b c c b k k b b n / M n d h k k b b b c c b     b b c b                         ",
"                                  b b b c @ f b p + p g s f f a o & & = O u s 6 7                                       ",
"                                          - a a . = . O # % = % % = - * % % = % 2                                       ",
"                                          - o # # < < $ % $ $ - < < - Z B < 4 1 A                                       ",
"                                        < - - # X V K < - - - - B J ; 2 ; ; Y S D                                       ",
"                                        < - - # # A Y B - B H K K J < % < ; D R A                                       ",
"                                      , - * # # % C Y G < B G < J J 2 C K B Z T D T                                     ",
"                                      % - % $ $ - < H Y - # 2 < - < < < K l.c.R D T                                     ",
"                                  7 # $ - % $ - * $ V x.C # ; J < < C Y 2 J P < 2 k.                                    ",
"                              l 8 1 $ - % $ - - - $ B x.K ; ; J K B V T P Z - $ Z c.g.N.}. X                            ",
"                    b n o.[ 0 : - - - - - % % < B B A T D $ B 1 B < H J D k.G , B l.v.S.}.|.~.|./.*X                    ",
"              n m +...h a : # % - - , $ % < C C , B Y Y - * T Y J K P , - P c.V B V l.d.b.Z.5.M.`.@XY.T.|.D.G.          ",
"        +.X.X.m ..o.x o - - : % - - - X , V , : q K K Z # 2 Y Y H B 2 Z , G R G P < G H K h.q.3.L.`.|.}.A.M.R.;X-X      ",
"    n m m n m X...o.( 9 y t Q q $ - , - e > 9 | Q 3 2 - ; D L K F > * Z H V , k.h.5 - G K J z.w.5.V.9.|.{.I.D.[.).      ",
"    b X.3.o.o.@.=.o.;.{ [ -.} 0 W 5 - 1 W } { <.=.! U < V ! >.$.&.%.w 3 e 5 I n.y % % w d.t.! s.#.=.7.U.9.1.R.'.D.      ",
"    ..o.X.X...o.] O.] o.{ O.( ,.e.y r :.[ ] 1.=.u.&XI B e q.,.,.1.K.w.S.~ g.%X^.P.t 0 *.u.oXL.q.! ) =.-.B.`.oXXXG.      ",
"      .. .X.o.X. . .( =.N.{ X.( =.;.*.-.' -.1.{ 2.S.L 3 &.1.1.N.Y. X}.`.Z.e.`.OX~.1.-.,.8.}.L.8.H.-.,.A.D.D.G./.XX      ",
"            X.X.X. . .O.1.O.X.( { ,.-.( { 1.1.M.;.a.y t ' >.A.(.}.u.u.L.9.2.D.E.L.I.-.-.1.D.V.K.D.K.|.|.Y.`.oX-X1X      ",
"                X. ...O.,.O.( ] ,.2.{ ( -.' =.1.-.q.Z.{ / =.G.K.@.o.8.1.C.1.F.R.W.9.N.A.M.,.M.M.A.N.[.oX|.1X            ",
"                      o.O.o.O.{ ..{ { ( ] ( =.] <.}.R.@.' 1.A.1.@.9.@.O.4.>XE.u.<.1.N.D.M.M.M.M.N.D.oX-X<X              ",
"                        X.O.<.{ ' { ( [ { { -.] 1.I.<.' K.[.`.U.,.H.8.,.-.1.M.F.I.8.1.N./.D.M.N.'._.oX                  ",
"                                          -.{   -.-.=.2.`.R.M.u.-.9.N.  D.N.G.A.M.                                      ",
"                                                      2.                                                                "
};
