/* XPM */
static char *a8e09ca0c4064fbe89eb8b3961cb0e3ctKRdQwyCbYLhDa22[] = {
/* columns rows colors chars-per-pixel */
"60 60 234 2 ",
"   c None",
".  c #030303",
"X  c #0A0503",
"o  c #050E06",
"O  c #0C0D0B",
"+  c #0C0C05",
"@  c #140A06",
"#  c #1B0C06",
"$  c #130C0A",
"%  c #1B0D09",
"&  c #06130A",
"*  c #0A140B",
"=  c #061A09",
"-  c #0A1B0D",
";  c #1D1206",
":  c #13110C",
">  c #1C110C",
",  c #121C0D",
"<  c #0F1611",
"1  c #0D1B12",
"2  c #061610",
"3  c #151411",
"4  c #1C1512",
"5  c #121D16",
"6  c #181D18",
"7  c #210E06",
"8  c #230F08",
"9  c #231107",
"0  c #2A1206",
"q  c #24120B",
"w  c #2B150B",
"e  c #23190D",
"r  c #2C180D",
"t  c #32160A",
"y  c #341B0E",
"u  c #3A1D0D",
"i  c #251612",
"p  c #251914",
"a  c #2C1B14",
"s  c #281B17",
"d  c #341D12",
"f  c #331D18",
"g  c #391E10",
"h  c #09220D",
"j  c #092A0E",
"k  c #06270D",
"l  c #0C2412",
"z  c #0C2C14",
"x  c #0E2D19",
"c  c #0E231A",
"v  c #122215",
"b  c #112B15",
"n  c #14251A",
"m  c #122C1A",
"M  c #19291A",
"N  c #19231A",
"B  c #0B3315",
"V  c #073B16",
"C  c #0B3B15",
"Z  c #0D341A",
"A  c #063D19",
"S  c #0C3C1B",
"D  c #07371B",
"F  c #123315",
"G  c #11331B",
"H  c #123C1B",
"J  c #1D3919",
"K  c #183718",
"L  c #3C210F",
"P  c #2A211B",
"I  c #3C2214",
"U  c #382419",
"Y  c #22200E",
"T  c #172B20",
"R  c #0D3D20",
"E  c #133D20",
"W  c #163122",
"Q  c #243522",
"!  c #441F0C",
"~  c #43230E",
"^  c #4B230F",
"/  c #50270E",
"(  c #432412",
")  c #4B2614",
"_  c #462B16",
"`  c #4B2914",
"'  c #422619",
"]  c #452B1B",
"[  c #4C2C1A",
"{  c #542C14",
"}  c #522D1A",
"|  c #563016",
" . c #5A3115",
".. c #53311B",
"X. c #5C341C",
"o. c #4F311B",
"O. c #62351B",
"+. c #63381C",
"@. c #693818",
"#. c #4B2C22",
"$. c #5C3920",
"%. c #683B21",
"&. c #0C4315",
"*. c #0B431C",
"=. c #054B1A",
"-. c #0B4B1D",
";. c #074718",
":. c #13441C",
">. c #16481A",
",. c #05541D",
"<. c #0C531E",
"1. c #045B1C",
"2. c #0C5B1F",
"3. c #0E5717",
"4. c #14521C",
"5. c #115B1D",
"6. c #1C561C",
"7. c #214C1E",
"8. c #24461D",
"9. c #24551F",
"0. c #0B631E",
"q. c #06641D",
"w. c #16651E",
"e. c #21661F",
"r. c #0B4521",
"t. c #074C22",
"y. c #0B4C22",
"u. c #124321",
"i. c #134F22",
"p. c #1A4B22",
"a. c #194828",
"s. c #065423",
"d. c #0A5422",
"f. c #055C23",
"g. c #0A5B24",
"h. c #135323",
"j. c #1B5322",
"k. c #125B24",
"l. c #1C5D23",
"z. c #1D5428",
"x. c #244C2A",
"c. c #284625",
"v. c #235B23",
"b. c #2B5D29",
"n. c #255727",
"m. c #36592C",
"M. c #2D5635",
"N. c #2F482F",
"B. c #076122",
"V. c #0B6222",
"C. c #0E6924",
"Z. c #0C6228",
"A. c #0D6828",
"S. c #136524",
"D. c #136B25",
"F. c #13642B",
"G. c #1A642B",
"H. c #166B2A",
"J. c #1A6B2C",
"K. c #1A6826",
"L. c #1B7326",
"P. c #1C742C",
"I. c #1E7B2C",
"U. c #157021",
"Y. c #1D7631",
"T. c #1D6730",
"R. c #2D6425",
"E. c #29652C",
"W. c #256B2D",
"Q. c #266A28",
"!. c #31632B",
"~. c #366C2C",
"^. c #22772E",
"/. c #29722D",
"(. c #237B2C",
"). c #287A27",
"_. c #34792C",
"`. c #246932",
"'. c #336E32",
"]. c #386F37",
"[. c #2B7436",
"{. c #247B31",
"}. c #2B7C33",
"|. c #267534",
" X c #3B7435",
".X c #337D35",
"XX c #377434",
"oX c #435F32",
"OX c #4B7E3D",
"+X c #427836",
"@X c #4A7237",
"#X c #2C832E",
"$X c #2A872E",
"%X c #348A2E",
"&X c #2C8332",
"*X c #2B8832",
"=X c #318533",
"-X c #348A33",
";X c #3B8C34",
":X c #3A843C",
">X c #358B3B",
",X c #3C8D3C",
"<X c #358338",
"1X c #3C923B",
"2X c #3A9537",
"3X c #4D8D3D",
"4X c #468838",
"5X c #449D3B",
"6X c #4C9D3B",
"7X c #479936",
"8X c #52933E",
"9X c #53863D",
"0X c #4DA23C",
"qX c #52A93F",
"wX c #60B33F",
"eX c #3C9841",
"rX c #439E43",
"tX c #499943",
"yX c #549B43",
"uX c #589843",
"iX c #4C8742",
"pX c #4CA342",
"aX c #43A046",
"sX c #54A645",
"dX c #52A942",
"fX c #5BAD44",
"gX c #56AA4A",
"hX c #5CA748",
"jX c #5BB347",
"kX c #61A748",
"lX c #61B547",
"zX c #64B24D",
"xX c #69B647",
"cX c #68C04A",
/* pixels */
"                                                                                                                        ",
"                                                                                                                        ",
"                                                                                                                        ",
"                                                                                                                        ",
"                                                        oXuXiX].v.9.c.                                                  ",
"                                                    M.!.uXfX-XK.K.,XuXOXN.                                              ",
"                                                E z.}.>X%X(.g.d.H.^.).=X].x.M                                           ",
"                                              G d.g.5.k.H.g.4._.fX6X.X-.h.G.`.a.                                        ",
"                                            v G C C Z Z D D G.lXjX0X6X3X7.C -.h.G                                       ",
"                                      m.c.  - j J K S Z G -.J.2X#XH.^.>X<X6.z B H Q                                     ",
"                                  m.9XkX3X~.R..XtX:X|.l.E.[.K.A.V.f.f.Z.|./.!.R.>.@XOXoX                                ",
"                                n.tX5X2X1X5XfX%Xw.q.H.&XaX^.<.t.f.s.-.=.H.=XtX(.^.>X6XuXm.                              ",
"                              *.V.C.Z.S.S.^.eXJ.t.=.<.U.I.0.-.S S C *.s.f.L.D.q.f.Z.K.-XiXx.                            ",
"                            m r.s.s.S D S g.J.-.x &.5.3.3.t.*.Z m G r.s.-.-.&.>.4.C C -.G.J.a.                          ",
"                          Q 8.7.H H b b Z Z E x l Q.qXsX4X~.>.z x T Z C :.R.8XsXuXOXn.F S *.K                           ",
"                        Q ~.lXfX8XkX9X~.E.S x H R.hXcXlXfXzXuXw.4.*.S -.[.gXdX0X%X;XkX9XF F F b                         ",
"                        n.2X7X;X-X2X5X%X}.W.&.j.1X0X7X;X%X-X1XeX&Xk.-.:.v.}.(.L.Z.0.&XtX>.F G.G.'.OX                    ",
"                      p.F.f.S.V.Z.C.A.A.1.G.K.^.Y.(.}.(.I.H.V./.6.j.S S C &.;.-.t.=.K.$X'.C y.2.;XhXyX'.                ",
"                    x.v.t.d.2.t.A ;.-.t.t.*.j.k.<.g.D.B.g.d.&. X8XfX/.}.4XXX:.Z >.v.Q.P.Y.S m S -.6.aX<XN.              ",
"                  Q x.G F Z H b G 8.c.Z D *.Z F j S -.-.y.;._.xXxX5X#X{.*XtX[.Q.7XzXfX#XC.,.G m D S K.J.M.              ",
"              j.~.+X8XOX>.>.b h +XxXxX4X).).l.v.oXJ b l c &.;XzX5X&X^.S.C.U.L.-XjX7X7XsX2X2.S B m x *.1.i.              ",
"            u.D.aXrX}.$X4XuXb.&.H.2XdXpXqXqX%XsXjXyX Xp.v.S.D.P.L.J.g.=.H.Y.I.-X-X}.P.).,Xk.H H C F l s.C               ",
"            r.g.k.g.,.1.0.,X Xg.1.B.J.P.-XtX#X$X%X&X&X.XW.F.f.f.f.t.r.=.F.A.Y.I.S.:.,.q.A.h.S C l./.>.r.Z J             ",
"          n W B z z C *.-.-.&.;.s.,.1.s.0.J.K.B.B.q.L.W.j z S *.S k B d.1.0.J.V.-.B *.d.t.&.E.Q.0XjX;X<.4.[.M.          ",
"          T n x 7.!.9.z.'.3X3X].`./.h.;.<.,.f.s.s.1.1.d.b 1 h z z V -.t.,.s.s.*.h = x G G 9.sXI.*XjXtX4.H `.Q.H         ",
"          n z Q.sXgX,X#XaX0XgX>X=XdXuXK W R y.&.A S C x * * Z S t.t.C h D *.H - o * l x b ].-XB.H.).D.g.>.S g.y.        ",
"        n S 2.5XdXK.h.k.K.S.S.2.^.qX6XXXl 1 m B B x b * . . & l x - o $ b l - - Z y.d.n.E.}.0.f.d.f.1.J.n.Z S u.        ",
"        l d.K.>X<XW.z S C ;.D -.|.-XU.D.>.& - v v * : > X . : O . . . X ; + 1 m Z s.B.P.L.0.,.C B ;.4.8XQ.Z m b M       ",
"        W i.y.G.0.|.>.l n m Z d.V.V.,.t.c e ; . O @ 7 ' q r I 8 X $ @ @ [ a $ $ * S -.s.1.-.D - :.J.tXzX,XC m Z M       ",
"          m -.K.1.C.|.j.K l Z t.=.;.S m 3 7 I $ 8 t @ #. .) w 8 a i t ^ X.d i 4 * 5 z Z Z m l E.J.Z.^.L.K.*.z n n       ",
"          j 4XsXw.s.B.L.[.n.k l l n 5 e ) a p d t #.> ( X.w $ % 0 t } $.( @ : 8 f : = v v j j.gX,X-.y.,.s.S l           ",
"        6 Z  X5XG.r.t.1.C.Z.=.z 1 & o > / O.q w w s > w d # $ > g f t q % $ > t w , r.V ;.,.J.=X,X4.C G S x v           ",
"        5 z 5.{.J.B x C *.d.t.Z x l l & 9 ) ` 0 ; w ~ ^ q _ e 9 I q q % # y [ ] , B d.f.-.S r.d.D.G.*.F n n             ",
"        N x *.J.P.;.B x m m m l - h Z F & $ ( [ w [ O.X.^ +.I 0 U w i 0 [ ..L Y b Z S Z C Z Z F ;.y.*.K                 ",
"          M F *.<.g.d.B - l B S u.:.z C z o # y w { ~ I / +.t 0 t I d ) +.e , = b 5 - = *.*.B z Z m m                   ",
"            v x C *.r.Z z R f.f.,.V x R *.*.- $ d u } ) { ..r u I g u } I , Z S S k - H g.d.S - n n                     ",
"              1 5 m x v 1 Z t.=.*.b * z *.t.Z < > t +.` ~ ( q ..~ w ~ ; v m m S t.R z j *.*.m 6                         ",
"                          l m m l : 3 - v x c * @ 0 O./ y y ;  .) 8 _ q - l m F m 5 5 5 n n 6                           ",
"                            6 <           < O   4 y ..~ w _ 9 [ { # ( g   * 5 n v                                       ",
"                                                  w d ~ 9 | ~ ( X.y I '                                                 ",
"                                                  w r _ 9 { O.r [ w _ I                                                 ",
"                                                  r q ( q ` ` q I % y y                                                 ",
"                                                f d a u t | g 0 ) > t ]                                                 ",
"                                                q I I u { +.d t X.u y ]                                                 ",
"                                                p d r a u | ( 7 ` X.g ]                                                 ",
"                                                > d y # y { { w L +.u I f                                               ",
"                                                # [ [ 7 I ..@.L y @.{ g I                                               ",
"                                              p d { } ( I ~ @.[ 0  .+.r d U                                             ",
"                                            f U I ` y q q 0 { y q |  .e u _                                             ",
"                                            f U 8 } ( @ % I | 0 q d / 0 9 I U                                           ",
"                                          p p 0 q ) y $ q } $.d q q { ` > w s P                                         ",
"                                        I U q L [ ( > @ t / ) w @ q X.^ I # 4 P U                                       ",
"                                      p I g y ..) [ % % } %.) d # # y d X.! q 7 a i s                                   ",
"                                    s w a 8 ` ) t U $ $ d [ t o._ i % q I y ( d % q f 4                                 ",
"                                  4 p 3 % e I q % > p : 4 q q w r d L q % > q p 4 $ % 3 O                               ",
"                              3 O 3 P     i q 4                 p > q 4 4         6                                     ",
"                                            4                                                                           ",
"                                                                                                                        ",
"                                                                                                                        ",
"                                                                                                                        "
};
