/* XPM */
static char *_581b84b4077434df867c61d3bfb9036k7n81pQBMQtaSUpN[] = {
/* columns rows colors chars-per-pixel */
"60 60 110 2 ",
"   c None",
".  c #06060A",
"X  c #0E070B",
"o  c #09090D",
"O  c #10070C",
"+  c #15080C",
"@  c #1C090D",
"#  c #0E0F13",
"$  c #230A0E",
"%  c #2A0A0E",
"&  c #360D11",
"*  c #3A0D11",
"=  c #410D11",
"-  c #4C0F13",
";  c #590F13",
":  c #441216",
">  c #4F1015",
",  c #5E1014",
"<  c #5B1418",
"1  c #631116",
"2  c #6A1115",
"3  c #641419",
"4  c #691419",
"5  c #741216",
"6  c #7D1317",
"7  c #72151A",
"8  c #7B141A",
"9  c #85161C",
"0  c #8B1419",
"q  c #96151A",
"w  c #9C161B",
"e  c #94191F",
"r  c #9B1A1F",
"t  c #AD171E",
"y  c #AD181D",
"u  c #B1171E",
"i  c #B5191D",
"p  c #BC191E",
"a  c #9F1B20",
"s  c #A31B21",
"d  c #AC1C22",
"f  c #B21D23",
"g  c #BE1F25",
"h  c #C41A1F",
"j  c #EC1A1F",
"k  c #C51F25",
"l  c #CB1D23",
"z  c #D31D22",
"x  c #DA1D23",
"c  c #E51D25",
"v  c #ED1F24",
"b  c #F11F24",
"n  c #C52026",
"m  c #C92026",
"M  c #D72E32",
"N  c #DA3336",
"B  c #ED2126",
"V  c #ED2529",
"C  c #ED282D",
"Z  c #F02025",
"A  c #EE3135",
"S  c #EE3538",
"D  c #EE393D",
"F  c #F03C3F",
"G  c #EF3E42",
"H  c #F03F42",
"J  c #EF4246",
"K  c #EF4549",
"L  c #EF4A4D",
"P  c #F04547",
"I  c #EF4F51",
"U  c #EF5153",
"Y  c #F05254",
"T  c #F05658",
"R  c #F05A5C",
"E  c #F15F63",
"W  c #F16164",
"Q  c #F26B6E",
"!  c #F26E71",
"~  c #F4888B",
"^  c #F48C8F",
"/  c #F48E90",
"(  c #F59B9D",
")  c #F69FA1",
"_  c #F6A0A2",
"`  c #F6A1A3",
"'  c #F6A1A4",
"]  c #F6A4A6",
"[  c #F7ACAE",
"{  c #F7AFB1",
"}  c #F7B1B3",
"|  c #F7B2B4",
" . c #F7B4B6",
".. c #F8B6B8",
"X. c #F8B7B9",
"o. c #F8B9BB",
"O. c #F8BABC",
"+. c #F8BBBE",
"@. c #F9C3C5",
"#. c #F9C3C6",
"$. c #F9C4C7",
"%. c #F9C6C8",
"&. c #F9C7C9",
"*. c #F9C9CB",
"=. c #F9CACC",
"-. c #FACFD1",
";. c #FAD0D2",
":. c #FAD1D3",
">. c #FAD2D4",
",. c #FAD3D5",
/* pixels */
"                      . o . . . . . X . . .                                 . . o . X . . . . . X                       ",
"                      . . . . . . . . . . . .                               . . . . . o . . . . .                       ",
"                      . . . . . . . . . . . .                               o . . . . . . . . . .                       ",
"                      X O O O O O O O O X X X                               o O X X O O O X X X O                       ",
"                . . . 9 i i i i i i i i i i 5 . X .                 o o . , i i i i i i i u u u 0 X . o                 ",
"                . . . q b b b B Z Z b B b b 0 . o .                 o o . 2 Z B b b b b v B v v u X . . .               ",
"                . . . q b j B v j B B v j Z 0 . . .                 . . . 2 v v v v v v v B c c t X . . .               ",
"                + + O w Z B B B B B B B B Z 0 + + +                 + + + 2 v v v v v v v j c v u @ + + +               ",
"        # # # 3 p p p N P J K ^ ` ` ~ P J P N p p p < # # o # # # : i p p z v v v v v v v b v v x p i f 8 # # #         ",
"        . . . 2 b b b H Y Y R o.,.>.| T Y Y F j b Z , . . . . . . = c Z v v j b v v b v v j v v v v v b 9 . . .         ",
"        . . . 2 v B v D Y Y T  .>.>.{ T U Y D B v v , . . . . . . * c v v v v v v v v v v b v v b c c v 9 . . o         ",
"        + + O 5 B B B K R R W [ @.$.` Y U U D B v B 2 O + + + + + - c v b b v v v v v v v v v v b c c c 0 O O O         ",
". . . % i h h M L L K / O.O.} R D J D V C C B j B v z h h h h h h l v v v v v v v v v v v v v v c c c c z s s a & . . . ",
". o . % x v b S Y Y Y ) >.;.*.J j v j v B j B B j v v b Z b b b b v v v b B v v v b v B v v v b b c c c x l n k & . . o ",
". o . % x b v A Y U U ) ;.;.&.K j v B B v v j B B B v v v v v v v b B v v v v v b v v v v v v v b c c j z k k g & . o . ",
". . . % z v j D T R R ( &.$.O.J j v v v v B B v v v v b v B v v v v v v v v v B v v v v v b v v v c c v x k k g & . . . ",
". . . % x v j W ..o.o.! P P P B B v B v j B B j B B v B j v v v v v v v v v v v v v B v B B v v v v c c x n n g & . o . ",
". . . % z B v Q ;.;.;.W j j j v B v v v B B v B v v v B B B v Z B v v b v B v B v v b v j B v v v c c c z n n g & . . . ",
". . . % z b j Q ;.;.=.W j v v v j B v v j Z v B v Z B B j B v v v v v v v v v v v B v v Z B B B c c c c x n n g & . . o ",
". . . % x j j Q =.*.*.E j v v v B v v v B v v B B j B j B B j B v Z v v v v v b v v v v j B v j v v c V z n n g & . o . ",
". . . % x j v J ! Q Q D j B B v B v j B B v B j B j b v B Z B B v v B v v v v v v v v Z v v v v v v c v x n n g & . . . ",
". . . % x B v A Y Y U A v v v v B v B v v v v v B B v v B j B j v b v v v v v v b v v v v v B v c c c v x n n g & . . . ",
". . . % x j B A Y Y Y A v v B v j B j v B B B B v v B B v v B B v v B v b v b v v B v v B v v v v c c v x n k g & . . . ",
". . . % x v B A U L L A v B j v Z B B B j Z j B B v j B v B B j v v v v v v v v v v v v v v b v v c c c z n n g & . . . ",
". . . % x v v B B C V B B B v v v B B v v v j B j B v v B B v v v v b v v v v v v v v v v v v v v c c c x k k g & . . . ",
". . . % x v v v B j B j j B v B v B j v v B B v v B B B j B j B v v v v v v v v v v v v v v v b v c v c x k k g & . . . ",
". . . % x b v v B B v B B v v B b v B B Z j B B v j B j v B Z B v v v b v v v v v v v b v v v v v c c c x k k k & . . o ",
"o . . % h x z c j B v B B v B j j B j B B B j B v Z B B v B j B v v v v v b v V v b v v v v b b v c c c z f f d & . . . ",
"        % % $ 6 Z j B j v v j B B v v B v v Z B j B v v B B v v v v v v v v v v v v v v c c c c c m m m 9 $ $ $         ",
"        . . . 2 v v B B B B B B B v B j v B j B B v b B j B Z v v v v v v v v v v v v v b c b c x k n n 7 . . .         ",
"        . . . 2 b v j Z j B j B B v B j j B B j B j j B B B j B v b v v v b b v v v b v b c c c c n n n 7 . o .         ",
"        . . . 2 Z B B v v B B B j B B Z B v B B B B B v v j B B v v v v v v v v v v v v b c c c x n n n 7 . . o         ",
"        o . . 2 B B j Z B B B v b v v v B v v v v b v v v v v v v v v v v v v v v v v v v v c j c n n n 7 . . o         ",
"        . . . 2 v v B v B j j B v v v v v v v v v B v v Z v v v v Z v v v v v v v v v v v v c c x l n n 7 . o .         ",
"        . . . 2 b b b b j B B B B v v v v v v v v v v v v v v v v v v v v v v v v v v v v v v c x m m m 7 . . .         ",
"        . . . 1 h z h c B v v v v v v v v b B v b v B v v v v Z v v v Z v v v b v v v v v c x c z d d d 4 . . o         ",
"                @ @ + y Z v b v v v v v v v v v v v v v v v v v v v v v v v v v v v c v c l m m r @ + @ @               ",
"                . . . q b v j B v v v b v v b v v v v v B v v v Z v Z v v v v v v v v c x m n n e X . . .               ",
"                . . . q Z Z B B v v v b v v b b B v v v v v v v v B v v B b v v v v v c c m n m e O . . .               ",
"                . . . 0 x h z j v v v v v v v v v v v v v v v v v v v v b v v v v c c c x f d f 9 X . o                 ",
"                      $ $ @ % h b v v v v v v v Z v B B v b v v v v v v v v v c c z n m f & @ @ +                       ",
"                      . . . O p b v v v v v v v j v v j v v v v v v v v v v c c v l n n d @ . . .                       ",
"                      . . . O p b b v c v v v b B B v B B j v B v v v v v c c c j z n n f @ . . o                       ",
"                      . . . O i z z x B v v v v j B v v B B v v v v v v v v c c x n f f r @ . . .                       ",
"                              % $ $ ; B j B j B B v B j B v v v b v c v c x m m m < @ @ $                               ",
"                              . . . * j B B B B B v B B v v v v v v c c c z m n n > . . .                               ",
"                              . . . * j Z B B j B B v v v v v v v v v c c x n n m > . . .                               ",
"                              . . . * h h h x B j B j Z v v v j v v x c c k a a y > . o .                               ",
"                                      + + O 5 b b v B v j B v c c x l k m 8 + + +                                       ",
"                                      . . . 2 v b b v v B v c c c c k k m 7 . . .                                       ",
"                                      o . . 2 b b b B v j v v c v x k k l 7 . . o                                       ",
"                                      . . . 2 h h h x j B B c c c z d s d 3 . . .                                       ",
"                                              + @ @ w b v v l m k a @ + + +                                             ",
"                                              . . . q b v B m n k a o . . .                                             ",
"                                              . . . q b v v l m k a X . . o                                             ",
"                                              . . . 0 x h h f d d 8 X . .                                               ",
"                                                    $ @ @ $ + + @ +                                                     ",
"                                                    . . . . . . . .                                                     ",
"                                                    . . . . . . . .                                                     ",
"                                                    X . . . . o . #                                                     "
};
