/* XPM */
static char *_79f2dfe1ab14056869317a33c9df111SQmJFWECC6ybural[] = {
/* columns rows colors chars-per-pixel */
"60 60 248 2 ",
"   c None",
".  c #2A1C16",
"X  c #371E17",
"o  c #133C0B",
"O  c #18380B",
"+  c #1C3B13",
"@  c #1B3916",
"#  c #13340F",
"$  c #26390E",
"%  c #32231A",
"&  c #382717",
"*  c #233C1B",
"=  c #2C3B15",
"-  c #3C3619",
";  c #282813",
":  c #373422",
">  c #1F180F",
",  c #422915",
"<  c #47351C",
"1  c #523719",
"2  c #492F22",
"3  c #473724",
"4  c #543B24",
"5  c #783C23",
"6  c #14430C",
"7  c #19440C",
"8  c #1B4B0E",
"9  c #174A0C",
"0  c #1A550E",
"q  c #1B4414",
"w  c #1C4C13",
"e  c #194917",
"r  c #1D5313",
"t  c #1B5913",
"y  c #2B4C1C",
"u  c #264717",
"i  c #36491A",
"p  c #225514",
"a  c #235B13",
"s  c #2A5C15",
"d  c #23561A",
"f  c #255A1C",
"g  c #3A5A15",
"h  c #2E490E",
"j  c #1D6910",
"k  c #21660D",
"l  c #236413",
"z  c #246B14",
"x  c #236319",
"c  c #2A621B",
"v  c #256D1A",
"b  c #2B6818",
"n  c #386618",
"m  c #257414",
"M  c #257B14",
"N  c #2A7B15",
"B  c #2B741A",
"V  c #2C7C1C",
"C  c #297516",
"Z  c #2E7216",
"A  c #2B4825",
"S  c #365627",
"D  c #315527",
"F  c #386A2B",
"G  c #2E7824",
"H  c #377626",
"J  c #336B2C",
"K  c #57441C",
"L  c #415917",
"P  c #4A4F1A",
"I  c #66481E",
"U  c #68541C",
"Y  c #45681A",
"T  c #4B7415",
"R  c #4B7719",
"E  c #547B1B",
"W  c #547A1A",
"Q  c #5C4424",
"!  c #425D27",
"~  c #555527",
"^  c #585539",
"/  c #484224",
"(  c #654524",
")  c #684A28",
"_  c #744826",
"`  c #6B5729",
"'  c #77582B",
"]  c #6A5636",
"[  c #755D38",
"{  c #6C4830",
"}  c #5B6A28",
"|  c #47772A",
" . c #537625",
".. c #566838",
"X. c #4C6F31",
"o. c #79632E",
"O. c #687A2A",
"+. c #746435",
"@. c #666C34",
"#. c #677C1A",
"$. c #565941",
"%. c #705942",
"&. c #5E754D",
"*. c #7B6948",
"=. c #6F764E",
"-. c #A1701F",
";. c #86472A",
":. c #8C5621",
">. c #855A38",
",. c #985738",
"<. c #904F2C",
"1. c #AC592C",
"2. c #866929",
"3. c #87683A",
"4. c #996637",
"5. c #8C7630",
"6. c #B66D3C",
"7. c #C26737",
"8. c #CA7C3C",
"9. c #90734D",
"0. c #A9734E",
"q. c #BA794A",
"w. c #AA7357",
"e. c #AF7054",
"r. c #977F65",
"t. c #B37B66",
"y. c #C37B44",
"u. c #C07E57",
"i. c #2D860F",
"p. c #2B8316",
"a. c #2D8A15",
"s. c #2C831B",
"d. c #2B891A",
"f. c #328B1D",
"g. c #32841A",
"h. c #33941B",
"j. c #349B19",
"k. c #2C931B",
"l. c #39A71B",
"z. c #338C23",
"x. c #378628",
"c. c #3B9427",
"v. c #3D8131",
"b. c #3EA521",
"n. c #5A891B",
"m. c #628A1D",
"M. c #6A9B1B",
"N. c #6FA619",
"B. c #7BB61D",
"V. c #74A61E",
"C. c #5E8626",
"Z. c #429729",
"A. c #448B32",
"S. c #408533",
"D. c #499534",
"F. c #4E872B",
"G. c #688A26",
"H. c #788727",
"J. c #6A9C22",
"K. c #659428",
"L. c #769D28",
"P. c #799C34",
"I. c #6E8F35",
"U. c #46A52D",
"Y. c #77A725",
"T. c #7BB627",
"R. c #7EA939",
"E. c #7CC623",
"W. c #768448",
"Q. c #768955",
"!. c #7EA343",
"~. c #758E71",
"^. c #8BBD1E",
"/. c #8C8D33",
"(. c #AB9A36",
"). c #85A62B",
"_. c #87BB28",
"`. c #84A83A",
"'. c #8CB636",
"]. c #94B732",
"[. c #BFB03F",
"{. c #C2B63B",
"}. c #8AC226",
"|. c #97C928",
" X c #97C432",
".X c #92C930",
"XX c #A5D427",
"oX c #A4C638",
"OX c #A6D131",
"+X c #91CC17",
"@X c #899657",
"#X c #90904E",
"$X c #B38D4B",
"%X c #89A742",
"&X c #97B746",
"*X c #8EAB48",
"=X c #A6A549",
"-X c #B6B643",
";X c #979772",
":X c #928866",
">X c #B98768",
",X c #BA8A75",
"<X c #B7987A",
"1X c #A7936F",
"2X c #B4B869",
"3X c #ACB26F",
"4X c #9EA570",
"5X c #C38854",
"6X c #D18546",
"7X c #C9B54C",
"8X c #C78E77",
"9X c #C69478",
"0X c #D39879",
"qX c #D79173",
"wX c #C8AB7B",
"eX c #BDCC76",
"rX c #D2D86E",
"tX c #D5C748",
"yX c #B7A587",
"uX c #B9A991",
"iX c #ABA882",
"pX c #B4B7A5",
"aX c #AA9A86",
"sX c #C79E88",
"dX c #DA9882",
"fX c #E79A87",
"gX c #D7A988",
"hX c #D9B38B",
"jX c #C2AD95",
"kX c #C6B598",
"lX c #DAB895",
"zX c #CCAD8C",
"xX c #E5A58C",
"cX c #E9B897",
"vX c #F5B99A",
"bX c #EBB08E",
"nX c #F8BFA1",
"mX c #DABEAB",
"MX c #BDC981",
"NX c #E8C59A",
"BX c #F1CD9F",
"VX c #CEC3AE",
"CX c #E8C8A3",
"ZX c #F6CBA6",
"AX c #F6D4A5",
"SX c #F9D4AA",
"DX c #F0D6AF",
"FX c #C8CC95",
/* pixels */
"                                                                                                                        ",
"                                                          D.                                                            ",
"                                              v.S.c.c.h.h.h.c.j.j.c.c.U.                                                ",
"                                          G g.s.s.s.s.g.g.p.g.d.k.j.l.l.U.                                              ",
"                                      S d v m z C m M M N N N p.d.f.h.j.b.D.                                            ",
"                              '.'.C.T.'.| 0 j z z m m M N C N M p.p.f.h.b.                                              ",
"                            P._..XK.T._.Y.n r l z m m m m m C M N s.f.h.U.                                              ",
"                          %X.XT.K. .F.M.N.K.r l z z v C C m m B Z N N p.Z.                                              ",
"                          R._.T.n.g Y E R Y 8 x l z v j x k l f b z z j v                                               ",
"                            G. .K.n.W h y u + y k k a } O././.I.i y h p f                                               ",
"                              R._.N.M. .8 i S 7 q i =X(.5.2.2.[.3.) ) ` ]                                               ",
"                              %X`.Y.Y.G.8 O * i 4 { 7X( I :._ /./.( K K ^                                               ",
"                                        * % % & 1 ( {.U 4 _ { 2.=X1 i H Z.Z.D.                                          ",
"                                          3 & , , 1 (.5., , , U =XS H f.z.k.h.Z.|                                       ",
"                                          3 = u h y W m.h ~ } O.F.z.N i.p.d.d.a.v                                       ",
"                                          c Z x l k z Z g.H  . .Y Y Z Z N V V V 0 A           %X&X&X                    ",
"                                        u x v x x j a g } 3.sXhX0X4.4.+.L b b f @.=.        '.}.}.|.oXOXoX              ",
"                                      D q e t x x x g 9.e.>XBXAXCXwX,X>X>./ 8 i 1XpX        `.T.B._.+XXXOX              ",
"                                      A @ ! u @ u ^ >.w.yXmXAXAXDXuXpXVX<X>.P :XgXkX`.'.T.I. .J.M.m.).}.].              ",
"                                        e =.1X! < <.w.1X~.pXCXAXCX;X&.iXcX$X0.t.xXiX'.|._.Y.R Y T T M.G.G.*X&X*X        ",
"                                        e ..sXhXr.;.dXyX&.;XNXDXNXzX4X8XfX0Xy.e.gX  P.}.Y.n.R Y L T T M._.OXXXoX        ",
"                                        A A :X0Xe.<.qXqX>XcXZXAXSXlXZXvXvXCX5Xy.w.  R.}.T.n.T Y g L W m.L._.OXoX        ",
"                                          u ^ >X<.,.fXxXvXZXCXhXhXgXNXNXSXDX$Xy.    }.E.B.M.R g L L R G.L.^. X`.        ",
"                                              ( ;.,.xXvXcXgXcXhXgXhXwXBXDXhX6X6X    `.T.M.n.T R Y Y g n.^.+X|.&X        ",
"                                                ;.;.u.bXnXvXxXhXhXNXAXAXNX5X6X5X         .K.Y.n.Y m.n. .P._. X`.        ",
"                                                { ;.5 0.qXvXZXAXSXZXhX0X8.8.6X          I.T.T.N.n.N.B.!.                ",
"                    pX                          3 ( _ 5 ;.,.0.q.5Xy.6.8.6X6.9.            _.}.T.Y.B.|.%X                ",
"                    mXuX                | F J f @ = < ( 5 <.<.1.1.7.7.7.6.U h d             `.P.)._. XO.                ",
"            VXjX  yXyXCXkX^ F x.x.z.c.z.V m z l o o O h - U :.:.:.<.:.-.(.L o l v.S.                                    ",
"          aX<X<X<XcXcXAXZX,XY p.V p.d.p.m m j 8 o o 8 s g H.tX{./.1X>X{.rX! o 8 C f.Z.A.            sXjX;Xr.            ",
"          uX<XlX,X8XvXnXbXfX@.M C Z N m v t 8 o 6 e s b Y #.{.).I.FX2XL.P.g d 7 f M i.l.c.S.      8XfX8XlXkX            ",
"                8XdXgXxXdXt.i t p r p w q q @ e t e l s T n.m.J._.`.]..XM.n f e 0 z V z.d.f.c.x.=.dXfXw.yXjX            ",
"                            @ e *           S d r e a n n.M.B.E._._.V.|.^.R r f 8 8 l z M p.a.k.W.fXfXe.sXsX            ",
"                                          F f 9 t t g Y K.V.T.V.-X).V.XX|.K.s c d 6 e e 0 k m M ..<XdX9.aXuX            ",
"                                        H B x 0 D X.=. .M.B.E.T.L.P.Y.|. XV.n x b F   * e q w t A     ^                 ",
"                                    | x.G v r e q - r.iX4X*X'.'.&X%X'.|.^.). .d B F                                     ",
"                                    c.s.Z F O @ # X 2 [ r.<X=X/.2XwX=X].*X9.^ + m H                                     ",
"                                    x.G | A @ @ # ; , 4 ( ' ' 2.2.o.9.' ' { & O B x.F                                   ",
"                                      J S     @ # o + = - o.` ) U ` +.) Q < % @ G s.v.                $.                ",
"                                            J t w 7 7 d r F } ~ Y @.i $ O O + ! v f.S.                  $.              ",
"                                            G C k a 7 o p b b l s a p 7 o o q S S                                       ",
"                                          c.g.m k p 7 @ * y d r d u o 7 9 l l r                                         ",
"                                        S.h.N z a 8 + @             + 8 l j N B c                                       ",
"                                        c.d.m t 8 + *               u 8 k m i.d.x.                                      ",
"                                      A.k.G v 0 o @                   u r l N a.j.D.                                    ",
"                                      | d.M z j 8 i                     # 6 l p.j.D.                                    ",
"                                        J H | W.@XW.=.                A o 9 b V h.A.                                    ",
"                                          Q.MXrXeXeX@XW.            Q.:X} ! n N x.                                      ",
"                                              3X2X3X@XQ./ &       =.@X@X3XeX@X                                          ",
"                                                ] Q ~ @.& X     3 =.#X2X2X4X                                            ",
"                                                o.K - 4 & .   . : =.^ { *.                                              ",
"                                              9.] [ %.2 .     > X 2 : 4 [                                               ",
"                                            *.#X~ o.] 2 .       . % ^ %.` 5.                                            ",
"                                            3.o.3.' 4 ,         . 2 / [ ) #X*.                                          ",
"                                            4._ I I 4 %           & 1 I [ [ *.                                          ",
"                                          3.4.' _ ( < .           % 4 I I I 3.*.                                        ",
"                                            3._ { 4 %               2 { { ' >.%.                                        ",
"                                            [ { 2 %                 & 3 ) ` `                                           ",
"                                                                        < Q ]                                           ",
"                                                                                                                        "
};
