/* XPM */
static char *_deef657a0bc4613f8360bc5de86cb3bqDvSyqdJcL0K3ows[] = {
/* columns rows colors chars-per-pixel */
"60 60 175 2 ",
"   c #4A8422",
".  c #5B942B",
"X  c #599529",
"o  c #578E29",
"O  c #467E21",
"+  c #5E962D",
"@  c #4F8724",
"#  c #528924",
"$  c #548C24",
"%  c #568E26",
"&  c #478120",
"*  c #548C26",
"=  c #4B8422",
"-  c #558D26",
";  c #498420",
":  c #5A9329",
">  c #528C26",
",  c #609B2D",
"<  c #498220",
"1  c #518925",
"2  c #578F27",
"3  c #4A8321",
"4  c #548E25",
"5  c #538B24",
"6  c #467F20",
"7  c #478321",
"8  c #498421",
"9  c #468021",
"0  c #437F1E",
"q  c #5A9427",
"w  c #4A8322",
"e  c #488222",
"r  c #4F8923",
"t  c #528C24",
"y  c #498321",
"u  c #4E8625",
"i  c #589129",
"p  c #508924",
"a  c #488022",
"s  c #3F7B1E",
"d  c #427E1D",
"f  c #599227",
"g  c #407B1E",
"h  c #3D7A1B",
"j  c #60992D",
"k  c #46801E",
"l  c #457F1F",
"z  c #4D8622",
"x  c #579126",
"c  c #538E28",
"v  c #457E21",
"b  c #488023",
"n  c #498322",
"m  c #427D1E",
"M  c #60992E",
"N  c #4C8522",
"B  c #649E30",
"V  c #59922B",
"C  c #4D8724",
"Z  c #4F8823",
"A  c #558F26",
"S  c #467E1F",
"D  c #437D1E",
"F  c #488122",
"G  c #59912E",
"H  c #447F1F",
"J  c #548D26",
"K  c #45811F",
"L  c #5B9330",
"P  c #427D1F",
"I  c #488120",
"U  c #498221",
"Y  c #4C8721",
"T  c #5B932B",
"R  c #4D8625",
"E  c #477F24",
"W  c #447E1F",
"Q  c #5F982D",
"!  c #4B8722",
"~  c #629B2F",
"^  c #508826",
"/  c #5A9230",
"(  c #5A912E",
")  c #518727",
"_  c #579027",
"`  c #528B24",
"'  c #3B771A",
"]  c #407A20",
"[  c #46801F",
"{  c #59912C",
"}  c #518927",
"|  c #5B9230",
" . c #518A28",
".. c #508828",
"X. c #498224",
"o. c #578E27",
"O. c #4A8124",
"+. c #4D8624",
"@. c #457D1E",
"#. c #47801F",
"$. c #5A942C",
"%. c #4E8824",
"&. c #417B1E",
"*. c #4E8627",
"=. c #4E8724",
"-. c #407B1D",
";. c #538D28",
":. c #458021",
">. c #488123",
",. c #4A8221",
"<. c #498122",
"1. c #4C8527",
"2. c #458121",
"3. c #427B21",
"4. c #4C8525",
"5. c #538C27",
"6. c #538D29",
"7. c #528C27",
"8. c #56902B",
"9. c #498422",
"0. c #4C8526",
"q. c #5D962D",
"w. c #518B26",
"e. c #5D9430",
"r. c #568D29",
"t. c #548D27",
"y. c #437D20",
"u. c #437C20",
"i. c #538A28",
"p. c #447C1F",
"a. c #5C932D",
"s. c #4A8225",
"d. c #4B8224",
"f. c #528B27",
"g. c #4F8825",
"h. c #518A25",
"j. c #508827",
"k. c #548B26",
"l. c #548C28",
"z. c #4C8426",
"x. c #4F8827",
"c. c #61992D",
"v. c #4A8323",
"b. c #558C26",
"n. c #578F28",
"m. c #447F1E",
"M. c #5A942A",
"N. c #4C8623",
"B. c #4C8424",
"V. c #5A932A",
"C. c #538C25",
"Z. c #5B9329",
"A. c #589029",
"S. c #569128",
"D. c #478021",
"F. c #4D8623",
"G. c #528A25",
"H. c #548D24",
"J. c #548C25",
"K. c #558D25",
"L. c #488220",
"P. c #588F27",
"I. c #4B8324",
"U. c #619A2D",
"Y. c #468020",
"T. c #498023",
"R. c #568D26",
"E. c #558D27",
"W. c #45801F",
"Q. c #4B8523",
"!. c #4B8323",
"~. c #5C942B",
"^. c #528B25",
"/. c #478020",
"(. c white",
/* pixels */
"  . X o O + @ # $ % & * = . X o O + @ # $ % & * = . X o O + @ # $ % & * = . X o O + @ # $ % & * = . X o O + @ # $ % & - ",
"; : > , < 1 2 3 4 5 6 7 8 : > , < 1 2 3 4 5 6 7 8 : > , < 1 2 3 4 5 6 7 8 : > , < 1 2 3 4 5 6 7 8 : > , < 1 2 3 4 5 9 0 ",
"q w e r t y u i p a s d f 3 e r t y u i p a s d f 3 e r t y u i p a s d f 3 e r t y u i p a s d f 3 e r t y u i p a g h ",
"j k l z x c v u b n m p M k l z x c v u b n m p M k l z x c v u b n m p M k l z x c v u b n m p M k l z x c v u b n m N ",
"B V C l Z A S D F G H J B V C l Z A S D F G H J B V C l Z A S D F G H J B V C l Z A S D F G H J B V C l Z A S D F G l Z ",
"K L P I U Y T F R E W Q ! L P I U Y T F R E W Q ! L P I U Y T F R E W Q ! L P I U Y T F R E W Q ! L P I U Y T F R E W ~ ",
"^ / 9 ( ) _ ` ' ] [ { } ^ | 9 ( ) _ ` ' ] [ { } ^ | 9 ( ) _ ` ' ] [ { } ^ | 9 ( ) _ ` ' ] [ { } ^ | 9 ( ) _ ` ' ] [ {  .",
"..X.H o.O.+.I @.#.$.%.&.*.X.H o.O.+.I @.#.$.%.&.*.X.H o.O.+.I @.#.$.%.&.*.X.H o.O.+.I @.#.$.%.&.*.X.H o.O.+.I @.#.$.=.-.",
";.:.>.,.<.1.2.3.4.5.U 6.7.:.>.,.<.1.2.3.4.5.U 6.7.:.>.,.<.1.2.3.4.5.U 6.7.:.>.,.<.1.2.3.4.5.U 6.7.:.>.,.<.1.2.3.4.5.U 8.",
"J 9.0.q.w.e.r.v t.y.u.M i 9.0.q.w.e.r.v t.y.u.M i 9.0.q.w.e.r.v t.y.u.M i 9.0.q.w.e.r.v t.y.u.M i 9.0.q.w.e.r.v t.y.y.M ",
"i.0.p.a.s.d.f.g.h.y.j.k.l.z.p.a.s.d.f.g.h.y.j.k.l.z.p.a.s.d.f.g.h.y.j.k.l.z.p.a.s.d.f.g.h.y.j.k.l.z.p.a.s.d.f.g.h.y.x.- ",
"c.n v.b.z n.m.M.N.B.V.C.Z.n v.b.z n.m.M.N.B.V.C.Z.n v.b.z n.m.M.N.B.V.C.Z.n v.b.z n.m.M.N.B.V.C.Z.n v.b.z n.m.M.N.B.V.C.",
"z A.S.o D.+ F.G.H.- U J.z i S.o D.+ F.G.H.- U J.z i S.o D.+ F.G.H.- U J.z i S.o D.+ F.G.H.- U J.z i S.o D.+ F.G.H.- U K.",
"; : > , L.1 P.3 4 5 6 7 8 Z.> , L.1 P.3 4 5 6 7 8 Z.> , L.1 P.3 4 5 6 7 8 Z.> , L.1 P.3 4 5 6 7 8 Z.> , L.1 P.3 4 5 9 0 ",
"q w e r t y u i p a s d f 3 e r t y u i p a s d f 3 e r t y u i p a s d f 3 e r t y u i p a s d f 3 e r t y u i p a g h ",
"j k l z x c v u b n m p M k l z x c v u b n m p M k l z x c v u b n m p M k l z x c v u b n m p M k l z x c v u b n m N ",
"B V C l Z A S D F G H J B V C l Z A S D F G H J B V C l Z A S D F G H J B V C l Z A S D F G H J B V C l Z A S D F G l Z ",
"K L P I U Y T F R E W Q ! L P I U Y T F R E W Q ! L P I U Y T F R E W Q ! L P I U Y T F R E W Q ! L P I U Y T F R E W ~ ",
"^ / 9 ( ) _ ` ' ] [ { } ^ | 9 ( ) _ ` ' ] [ { } ^ | 9 ( ) _ ` ' ] [ { } ^ | 9 ( ) _ ` ' ] [ { } ^ | 9 ( ) _ ` ' ] [ {  .",
"..X.H o.O.+.I @.#.$.%.&.*.X.H o.O.+.I @.#.$.%.&.*.X.H o.O.+.I @.#.$.%.&.*.X.H o.O.+.I @.#.$.%.&.*.X.H o.O.+.I @.#.$.=.-.",
";.:.>.,.<.1.2.3.4.5.U 6.7.:.>.,.<.1.2.3.4.5.U 6.7.:.>.,.<.1.2.3.4.5.U 6.7.:.>.,.<.1.2.3.4.5.U 6.7.:.>.,.<.1.2.3.4.5.U 8.",
"J 9.0.q.w.e.r.v t.y.u.M i 9.0.q.w.e.r.v t.y.u.M i 9.0.q.w.e.r.v t.y.u.M i 9.0.q.w.e.r.v t.y.u.M i 9.0.q.w.e.r.v t.y.y.M ",
"i.0.p.a.s.d.f.g.h.y.j.k.l.z.p.a.s.d.f.g.h.y.j.k.l.z.p.a.s.d.f.g.h.y.j.k.l.z.p.a.s.d.f.g.h.y.j.k.l.z.p.a.s.d.f.g.h.y.x.- ",
"c.n v.b.z n.m.M.N.B.V.C.Z.n v.b.z n.m.M.N.B.V.C.Z.n v.b.z n.m.M.N.B.V.C.Z.n v.b.z n.m.M.N.B.V.C.Z.n v.b.z n.m.M.N.B.V.C.",
"z A.S.o D.+ F.G.H.- U J.z i S.o D.+ F.G.H.- U J.z i S.o D.+ F.G.H.- U J.z i S.o D.+ F.G.H.- U J.z i S.o D.+ F.G.H.- U K.",
"; : > , L.1 P.3 4 5 6 7 8 Z.> , L.1 P.3 4 5 6 7 8 Z.> , L.1 P.3 4 5 6 7 8 Z.> , L.1 P.3 4 5 6 7 8 Z.> , L.1 P.3 4 5 9 0 ",
"q w e r t y u i p a s d f 3 e r t y u i p a s d f 3 e r t y u i p a s d f 3 e r t y u i p a s d f 3 e r t y u i p a g h ",
"j k l z x c v u b n m p M k l z x c v u b n m p M k l z x c v u b n m p M k l z x c v u b n m p M k l z x c v u b n m N ",
"B V C l Z A S D F G H J B V C l Z A S D F G H J B V C l Z A S D F G H J B V C l Z A S D F G H J B V C l Z A S D F G l Z ",
"K L P I U Y T F R E W Q ! L P I U Y T F R E W Q ! L P I U Y T F R E W Q ! L P I U Y T F R E W Q ! L P I U Y T F R E W ~ ",
"^ / 9 ( ) _ ` ' ] [ { } ^ | 9 ( ) _ ` ' ] [ { } ^ | 9 ( ) _ ` ' ] [ { } ^ | 9 ( ) _ ` ' ] [ { } ^ | 9 ( ) _ ` ' ] [ {  .",
"..X.H o.O.+.I @.#.$.%.&.*.X.H o.O.+.I @.#.$.%.&.*.X.H o.O.+.I @.#.$.%.&.*.X.H o.O.+.I @.#.$.%.&.*.X.H o.O.+.I @.#.$.=.-.",
";.:.>.,.<.1.2.3.4.5.U 6.7.:.>.,.<.1.2.3.4.5.U 6.7.:.>.,.<.1.2.3.4.5.U 6.7.:.>.,.<.1.2.3.4.5.U 6.7.:.>.,.<.1.2.3.4.5.U 8.",
"J 9.0.q.w.e.r.v t.y.u.M i 9.0.q.w.e.r.v t.y.u.M i 9.0.q.w.e.r.v t.y.u.M i 9.0.q.w.e.r.v t.y.u.M i 9.0.q.w.e.r.v t.y.y.M ",
"i.0.p.a.s.d.f.g.h.y.j.k.l.z.p.a.s.d.f.g.h.y.j.k.l.z.p.a.s.d.f.g.h.y.j.k.l.z.p.a.s.d.f.g.h.y.j.k.l.z.p.a.s.d.f.g.h.y.x.- ",
"c.n v.b.z n.m.M.N.B.V.C.Z.n v.b.z n.m.M.N.B.V.C.Z.n v.b.z n.m.M.N.B.V.C.Z.n v.b.z n.m.M.N.B.V.C.Z.n v.b.z n.m.M.N.B.V.C.",
"z A.S.o D.+ F.G.H.- U J.z i S.o D.+ F.G.H.- U J.z i S.o D.+ F.G.H.- U J.z i S.o D.+ F.G.H.- U J.z i S.o D.+ F.G.H.- U K.",
"; : > , L.1 P.3 4 5 6 7 8 Z.> , L.1 P.3 4 5 6 7 8 Z.> , L.1 P.3 4 5 6 7 8 Z.> , L.1 P.3 4 5 6 7 8 Z.> , L.1 P.3 4 5 9 0 ",
"q w e r t y u i p a s d f 3 e r t y u i p a s d f 3 e r t y u i p a s d f 3 e r t y u i p a s d f 3 e r t y u i p a g h ",
"j k l z x c v u b n m p M k l z x c v u b n m p M k l z x c v u b n m p M k l z x c v u b n m p M k l z x c v u b n m N ",
"B V C l Z A S D F G H J B V C l Z A S D F G H J B V C l Z A S D F G H J B V C l Z A S D F G H J B V C l Z A S D F G l Z ",
"K L P I U Y T F R E W Q ! L P I U Y T F R E W Q ! L P I U Y T F R E W Q ! L P I U Y T F R E W Q ! L P I U Y T F R E W ~ ",
"^ / 9 ( ) _ ` ' ] [ { } ^ | 9 ( ) _ ` ' ] [ { } ^ | 9 ( ) _ ` ' ] [ { } ^ | 9 ( ) _ ` ' ] [ { } ^ | 9 ( ) _ ` ' ] [ {  .",
"..X.H o.O.+.I @.#.$.%.&.*.X.H o.O.+.I @.#.$.%.&.*.X.H o.O.+.I @.#.$.%.&.*.X.H o.O.+.I @.#.$.%.&.*.X.H o.O.+.I @.#.$.=.-.",
";.:.>.,.<.1.2.3.4.5.U 6.7.:.>.,.<.1.2.3.4.5.U 6.7.:.>.,.<.1.2.3.4.5.U 6.7.:.>.,.<.1.2.3.4.5.U 6.7.:.>.,.<.1.2.3.4.5.U 8.",
"J 9.0.q.w.e.r.v t.y.u.M i 9.0.q.w.e.r.v t.y.u.M i 9.0.q.w.e.r.v t.y.u.M i 9.0.q.w.e.r.v t.y.u.M i 9.0.q.w.e.r.v t.y.y.M ",
"i.0.p.a.s.d.f.g.h.y.j.k.l.z.p.a.s.d.f.g.h.y.j.k.l.z.p.a.s.d.f.g.h.y.j.k.l.z.p.a.s.d.f.g.h.y.j.k.l.z.p.a.s.d.f.g.h.y.x.- ",
"c.n v.b.z n.m.M.N.B.V.C.Z.n v.b.z n.m.M.N.B.V.C.Z.n v.b.z n.m.M.N.B.V.C.Z.n v.b.z n.m.M.N.B.V.C.Z.n v.b.z n.m.M.N.B.V.C.",
"z A.S.o D.+ F.G.H.- U J.z i S.o D.+ F.G.H.- U J.z i S.o D.+ F.G.H.- U J.z i S.o D.+ F.G.H.- U J.z i S.o D.+ F.G.H.- U K.",
"; : > , L.1 P.3 4 5 6 7 8 Z.> , L.1 P.3 4 5 6 7 8 Z.> , L.1 P.3 4 5 6 7 8 Z.> , L.1 P.3 4 5 6 7 8 Z.> , L.1 P.3 4 5 9 0 ",
"q w e r t y u i p a s d f 3 e r t y u i p a s d f 3 e r t y u i p a s d f 3 e r t y u i p a s d f 3 e r t y u i p a g h ",
"j k l z x c v u b n m p M k l z x c v u b n m p M k l z x c v u b n m p M k l z x c v u b n m p M k l z x c v u b n m N ",
"B V C l Z A S D F G H J B V C l Z A S D F G H J B V C l Z A S D F G H J B V C l Z A S D F G H J B V C l Z A S D F G l Z ",
"K L P I U Y T F R E W Q ! L P I U Y T F R E W Q ! L P I U Y T F R E W Q ! L P I U Y T F R E W Q ! L P I U Y T F R E W ~ ",
"^ / 9 ( ) _ ` ' ] [ { } ^ | 9 ( ) _ ` ' ] [ { } ^ | 9 ( ) _ ` ' ] [ { } ^ | 9 ( ) _ ` ' ] [ { } ^ | 9 ( ) _ ` ' ] [ {  .",
"..X.H o.O.+.I @.#.$.%.&.*.X.H o.O.+.I @.#.$.%.&.*.X.H o.O.+.I @.#.$.%.&.*.X.H o.O.+.I @.#.$.%.&.*.X.H o.O.+.I @.#.$.=.-.",
";.:.>.,.<.1.2.3.4.5.U 6.7.:.>.,.<.1.2.3.4.5.U 6.7.:.>.,.<.1.2.3.4.5.U 6.7.:.>.,.<.1.2.3.4.5.U 6.7.:.>.,.<.1.2.3.4.5.U 8.",
"J 9.0.q.w.e.r.v t.y.u.M i 9.0.q.w.e.r.v t.y.u.M i 9.0.q.w.e.r.v t.y.u.M i 9.0.q.w.e.r.v t.y.u.M i 9.0.q.w.e.r.v t.y.y.M ",
"i.0.p.a.s.I.f.g.h.y.x.k.l.0.p.a.s.I.f.g.h.y.x.k.l.0.p.a.s.I.f.g.h.y.x.k.l.0.p.a.s.I.f.g.h.y.x.k.l.0.p.a.s.I.f.g.h.y.x.- ",
"U.Y.T.R.z E.W.M.Q.!.~.^.V./.T.R.z E.W.M.Q.!.~.^.V./.T.R.z E.W.M.Q.!.~.^.V./.T.R.z E.W.M.Q.!.~.^.V./.T.R.z E.W.M.Q.!.~.^."
};
